<?xml version="1.0" encoding="UTF-8" standalone="no"?>
<!DOCTYPE svg PUBLIC "-//W3C//DTD SVG 1.1//EN" "http://www.w3.org/Graphics/SVG/1.1/DTD/svg11.dtd">
<svg xmlns="http://www.w3.org/2000/svg" version="1.1" viewBox="0.00 0.00 382.00 307.00">
<g stroke-width="2.00" fill="none" stroke-linecap="butt">
<path stroke="#719134" vector-effect="non-scaling-stroke" d="
  M 364.19 102.96
  C 363.65 103.59 363.27 104.17 362.44 104.47
  C 353.79 107.64 346.38 113.13 338.51 116.26
  C 333.74 118.16 330.03 120.84 325.08 123.24
  Q 316.88 127.21 316.80 127.25
  C 305.19 133.23 299.84 136.21 294.08 138.67
  Q 290.04 140.40 288.76 141.10
  Q 283.14 144.18 283.09 144.20
  Q 267.90 151.97 227.01 172.25
  Q 226.98 172.27 221.54 174.72
  Q 217.91 176.36 212.99 179.25
  Q 208.72 181.77 199.64 185.39
  Q 195.44 187.07 189.58 191.16"
/>
<path stroke="#8da83a" vector-effect="non-scaling-stroke" d="
  M 189.58 191.16
  Q 182.80 187.98 176.24 184.43
  Q 171.49 181.84 162.96 177.74
  Q 153.53 173.20 146.75 169.37
  C 141.10 166.18 133.08 163.39 126.50 159.60
  Q 115.32 153.15 97.00 144.89
  Q 92.70 142.95 88.01 139.90
  Q 86.05 138.63 78.81 135.66
  Q 70.93 132.43 61.31 126.83
  C 54.23 122.71 46.19 119.98 38.98 115.74
  Q 35.73 113.82 30.14 111.43
  Q 21.83 107.87 14.21 102.86"
/>
<path stroke="#4e4927" vector-effect="non-scaling-stroke" d="
  M 365.17 138.46
  L 365.11 137.00
  A 0.73 0.72 70.3 0 0 363.95 136.45
  C 363.13 137.07 361.78 137.58 360.92 137.62
  C 351.48 138.09 346.37 142.29 339.65 148.15
  Q 335.97 151.36 331.24 151.71
  C 328.15 151.95 326.33 149.57 323.13 150.77
  C 317.59 152.86 314.82 156.55 311.51 161.26
  C 309.55 164.05 304.88 166.39 300.82 167.05
  C 296.01 167.84 294.50 167.98 290.34 170.23
  C 286.71 172.19 283.84 175.28 280.35 178.06
  Q 275.07 182.26 269.30 180.38
  C 264.55 178.84 261.48 180.90 258.19 184.19
  C 254.35 188.02 251.67 193.85 244.59 195.87
  C 242.06 196.58 238.24 196.52 235.52 197.67
  Q 229.55 200.22 227.25 202.51
  C 222.21 207.51 217.52 211.64 210.52 209.36
  C 206.18 207.95 200.66 211.51 198.41 214.67
  Q 194.30 220.45 189.77 223.36"
/>
<path stroke="#5d7433" vector-effect="non-scaling-stroke" d="
  M 189.58 191.16
  L 189.77 223.36"
/>
<path stroke="#69602e" vector-effect="non-scaling-stroke" d="
  M 189.77 223.36
  Q 189.10 224.15 187.86 223.14
  Q 185.06 220.86 182.85 218.01
  Q 179.02 213.06 178.08 212.32
  C 175.64 210.42 172.49 208.52 169.53 209.12
  C 167.74 209.48 165.53 210.42 163.69 210.19
  C 158.85 209.57 155.54 206.36 151.79 202.86
  Q 146.70 198.11 139.89 196.91
  Q 133.64 195.81 133.02 195.56
  C 127.71 193.46 125.12 189.53 121.46 184.99
  C 118.81 181.69 113.97 178.70 109.64 180.26
  Q 107.09 181.18 106.24 181.11
  C 100.92 180.65 97.24 177.39 93.25 173.65
  Q 87.69 168.44 80.32 167.40
  Q 75.90 166.78 74.82 166.39
  C 71.02 165.01 68.36 162.79 65.71 159.16
  C 62.33 154.52 59.05 150.92 53.30 150.48
  C 51.68 150.36 49.56 151.99 47.78 151.83
  C 41.66 151.26 38.06 147.48 33.08 142.99
  C 29.14 139.44 23.54 138.22 17.90 137.65
  Q 15.09 137.36 14.42 135.57
  Q 14.40 135.50 14.34 135.55
  Q 14.23 135.64 14.09 135.64
  Q 13.82 135.65 13.71 135.41
  Q 13.59 135.14 13.59 134.79"
/>
<path stroke="#6d4a38" vector-effect="non-scaling-stroke" d="
  M 189.24 278.83
  Q 190.07 274.48 189.32 271.49"
/>
<path stroke="#684532" vector-effect="non-scaling-stroke" d="
  M 189.32 271.49
  Q 188.91 269.82 189.15 268.48"
/>
<path stroke="#6d4a38" vector-effect="non-scaling-stroke" d="
  M 189.15 268.48
  L 189.52 246.75"
/>
<path stroke="#684532" vector-effect="non-scaling-stroke" d="
  M 189.52 246.75
  L 189.53 237.04"
/>
<path stroke="#6d4a38" vector-effect="non-scaling-stroke" d="
  M 189.53 237.04
  Q 189.91 234.45 189.38 231.76"
/>
<path stroke="#684532" vector-effect="non-scaling-stroke" d="
  M 189.38 231.76
  L 189.20 227.56
  Q 189.18 227.05 188.80 226.70
  Q 186.35 224.50 183.87 222.32
  C 179.59 218.59 178.46 213.77 172.61 212.89
  C 169.83 212.47 165.66 213.86 163.07 213.23
  C 158.42 212.09 154.97 208.61 151.12 205.40
  Q 147.51 202.39 143.50 200.81
  C 140.12 199.49 135.20 199.55 131.74 197.78
  Q 126.74 195.23 125.06 192.93
  Q 121.76 188.43 120.60 187.15
  C 115.80 181.88 110.74 184.17 106.05 183.88
  C 100.89 183.56 95.83 179.31 92.33 175.93
  C 88.22 171.96 81.05 170.80 76.07 169.46
  C 70.98 168.10 65.76 162.71 62.45 158.68
  Q 59.47 155.06 55.13 154.43
  Q 54.62 154.36 49.90 154.81
  C 39.26 155.84 34.11 143.36 24.11 141.66
  Q 16.26 140.32 13.75 139.49"
/>
<path stroke="#7b5947" vector-effect="non-scaling-stroke" d="
  M 189.32 271.49
  Q 182.75 270.46 177.57 267.19
  C 172.57 264.03 164.94 257.67 158.81 255.70
  Q 151.87 253.47 142.36 248.38
  Q 133.32 243.53 122.15 245.15"
/>
<path stroke="#7b5947" vector-effect="non-scaling-stroke" d="
  M 189.38 231.76
  Q 184.28 226.39 180.60 225.11
  C 175.27 223.25 171.38 222.18 167.22 220.06
  Q 160.37 216.59 159.40 216.06
  C 154.80 213.56 151.97 210.67 147.33 207.05
  Q 143.67 204.18 139.43 203.78
  Q 130.52 202.91 125.21 197.04
  Q 125.16 196.98 122.62 193.66
  C 120.65 191.09 114.74 185.90 111.34 186.93
  Q 102.50 189.62 95.85 183.17
  C 92.09 179.52 89.24 177.02 83.65 175.68
  Q 80.79 174.99 74.73 173.28
  C 63.76 170.19 62.54 154.62 49.83 158.47
  C 43.91 160.27 36.56 153.54 33.04 150.12
  Q 31.24 148.38 27.37 147.06
  A 0.92 0.92 0.0 0 0 26.28 148.39
  L 27.31 150.17
  A 0.78 0.77 82.5 0 1 26.44 151.31
  L 17.66 148.93
  A 0.51 0.51 0.0 0 0 17.03 149.30
  L 16.94 149.63
  Q 16.71 150.47 17.51 150.81
  Q 23.83 153.52 27.65 155.55
  C 33.85 158.82 40.49 160.22 46.05 161.48
  C 55.81 163.70 62.20 169.37 69.83 176.63
  C 70.84 177.58 72.72 178.70 73.99 179.23
  Q 80.28 181.87 86.41 184.88
  C 91.21 187.23 101.22 187.37 106.68 191.99
  Q 112.89 197.24 115.48 199.08
  C 121.00 202.99 128.37 202.91 133.30 204.66
  C 139.21 206.76 141.89 209.70 147.31 214.76
  Q 149.53 216.84 158.41 222.84
  C 162.55 225.63 165.73 225.97 172.25 227.89
  C 177.63 229.47 180.41 231.09 184.46 234.50
  Q 186.23 235.97 189.53 237.04"
/>
<path stroke="#7b5947" vector-effect="non-scaling-stroke" d="
  M 189.52 246.75
  Q 179.50 243.76 170.34 239.05
  C 164.03 235.79 159.39 234.41 152.92 232.06
  C 147.60 230.13 144.63 227.24 140.62 224.14
  C 135.89 220.49 129.87 219.51 125.62 216.88
  Q 117.83 212.05 98.61 199.65
  C 94.82 197.21 90.03 194.30 86.39 193.49
  Q 76.75 191.32 69.50 188.05
  Q 65.65 186.32 63.09 185.76
  C 56.63 184.34 52.13 183.10 47.04 178.90
  Q 43.26 175.78 39.13 172.61
  Q 36.88 170.88 29.25 168.63
  C 24.79 167.30 19.83 162.46 13.89 161.20"
/>
<path stroke="#7b5947" vector-effect="non-scaling-stroke" d="
  M 189.15 268.48
  Q 183.06 266.40 179.73 262.81
  Q 177.54 260.45 180.72 260.96
  Q 182.76 261.30 185.57 262.79
  Q 188.03 264.09 186.16 262.04
  Q 182.21 257.69 177.61 255.34
  C 174.49 253.75 169.21 252.62 165.98 250.36
  Q 159.95 246.15 155.10 242.45
  C 153.04 240.89 148.58 238.38 146.46 238.02
  Q 138.24 236.60 132.67 233.73
  Q 128.25 231.46 125.48 230.71
  C 120.00 229.22 113.94 228.35 110.32 226.20
  C 105.15 223.14 102.29 221.34 97.41 219.25
  C 91.43 216.68 89.05 214.71 83.58 209.92
  C 78.16 205.18 71.09 202.05 64.75 198.79
  C 60.34 196.53 55.75 192.34 51.50 190.79
  C 47.20 189.22 40.94 187.60 36.43 185.33
  C 32.64 183.41 27.54 180.45 22.88 178.68
  Q 20.21 177.66 17.45 176.78
  Q 16.22 176.39 17.48 176.07
  Q 20.19 175.36 21.81 175.48
  Q 23.86 175.63 22.48 174.10
  Q 19.11 170.36 14.00 170.27"
/>
<path stroke="#7b5947" vector-effect="non-scaling-stroke" d="
  M 65.4743 181.5807
  A 12.74 4.23 29.9 0 0 56.5386 171.5630
  A 12.74 4.23 29.9 0 0 43.3857 168.8793
  A 12.74 4.23 29.9 0 0 52.3214 178.8970
  A 12.74 4.23 29.9 0 0 65.4743 181.5807"
/>
<path stroke="#7b5947" vector-effect="non-scaling-stroke" d="
  M 130.11 207.63
  L 129.11 209.41
  A 0.77 0.77 0.0 0 0 129.40 210.45
  L 132.91 212.44
  A 7.67 1.78 29.5 0 0 140.47 214.67
  L 140.48 214.65
  A 7.67 1.78 29.5 0 0 134.68 209.33
  L 131.16 207.34
  A 0.77 0.77 0.0 0 0 130.11 207.63"
/>
<path stroke="#7b5947" vector-effect="non-scaling-stroke" d="
  M 120.5207 220.4257
  A 16.19 3.48 27.5 0 0 107.7669 209.8632
  A 16.19 3.48 27.5 0 0 91.7993 205.4743
  A 16.19 3.48 27.5 0 0 104.5531 216.0368
  A 16.19 3.48 27.5 0 0 120.5207 220.4257"
/>
</g>
<path fill="#a1c53b" d="
  M 364.19 102.96
  C 363.65 103.59 363.27 104.17 362.44 104.47
  C 353.79 107.64 346.38 113.13 338.51 116.26
  C 333.74 118.16 330.03 120.84 325.08 123.24
  Q 316.88 127.21 316.80 127.25
  C 305.19 133.23 299.84 136.21 294.08 138.67
  Q 290.04 140.40 288.76 141.10
  Q 283.14 144.18 283.09 144.20
  Q 267.90 151.97 227.01 172.25
  Q 226.98 172.27 221.54 174.72
  Q 217.91 176.36 212.99 179.25
  Q 208.72 181.77 199.64 185.39
  Q 195.44 187.07 189.58 191.16
  Q 182.80 187.98 176.24 184.43
  Q 171.49 181.84 162.96 177.74
  Q 153.53 173.20 146.75 169.37
  C 141.10 166.18 133.08 163.39 126.50 159.60
  Q 115.32 153.15 97.00 144.89
  Q 92.70 142.95 88.01 139.90
  Q 86.05 138.63 78.81 135.66
  Q 70.93 132.43 61.31 126.83
  C 54.23 122.71 46.19 119.98 38.98 115.74
  Q 35.73 113.82 30.14 111.43
  Q 21.83 107.87 14.21 102.86
  L 188.40 15.55
  A 1.97 1.97 0.0 0 1 190.16 15.55
  L 364.19 102.96
  Z"
/>
<path fill="#788b39" d="
  M 14.21 102.86
  Q 21.83 107.87 30.14 111.43
  Q 35.73 113.82 38.98 115.74
  C 46.19 119.98 54.23 122.71 61.31 126.83
  Q 70.93 132.43 78.81 135.66
  Q 86.05 138.63 88.01 139.90
  Q 92.70 142.95 97.00 144.89
  Q 115.32 153.15 126.50 159.60
  C 133.08 163.39 141.10 166.18 146.75 169.37
  Q 153.53 173.20 162.96 177.74
  Q 171.49 181.84 176.24 184.43
  Q 182.80 187.98 189.58 191.16
  L 189.77 223.36
  Q 189.10 224.15 187.86 223.14
  Q 185.06 220.86 182.85 218.01
  Q 179.02 213.06 178.08 212.32
  C 175.64 210.42 172.49 208.52 169.53 209.12
  C 167.74 209.48 165.53 210.42 163.69 210.19
  C 158.85 209.57 155.54 206.36 151.79 202.86
  Q 146.70 198.11 139.89 196.91
  Q 133.64 195.81 133.02 195.56
  C 127.71 193.46 125.12 189.53 121.46 184.99
  C 118.81 181.69 113.97 178.70 109.64 180.26
  Q 107.09 181.18 106.24 181.11
  C 100.92 180.65 97.24 177.39 93.25 173.65
  Q 87.69 168.44 80.32 167.40
  Q 75.90 166.78 74.82 166.39
  C 71.02 165.01 68.36 162.79 65.71 159.16
  C 62.33 154.52 59.05 150.92 53.30 150.48
  C 51.68 150.36 49.56 151.99 47.78 151.83
  C 41.66 151.26 38.06 147.48 33.08 142.99
  C 29.14 139.44 23.54 138.22 17.90 137.65
  Q 15.09 137.36 14.42 135.57
  Q 14.40 135.50 14.34 135.55
  Q 14.23 135.64 14.09 135.64
  Q 13.82 135.65 13.71 135.41
  Q 13.59 135.14 13.59 134.79
  Q 13.30 113.69 13.67 104.00
  Q 13.70 103.14 14.21 102.86
  Z"
/>
<path fill="#415d2c" d="
  M 364.19 102.96
  Q 365.13 103.27 365.14 103.82
  Q 365.43 116.04 365.17 138.46
  L 365.11 137.00
  A 0.73 0.72 70.3 0 0 363.95 136.45
  C 363.13 137.07 361.78 137.58 360.92 137.62
  C 351.48 138.09 346.37 142.29 339.65 148.15
  Q 335.97 151.36 331.24 151.71
  C 328.15 151.95 326.33 149.57 323.13 150.77
  C 317.59 152.86 314.82 156.55 311.51 161.26
  C 309.55 164.05 304.88 166.39 300.82 167.05
  C 296.01 167.84 294.50 167.98 290.34 170.23
  C 286.71 172.19 283.84 175.28 280.35 178.06
  Q 275.07 182.26 269.30 180.38
  C 264.55 178.84 261.48 180.90 258.19 184.19
  C 254.35 188.02 251.67 193.85 244.59 195.87
  C 242.06 196.58 238.24 196.52 235.52 197.67
  Q 229.55 200.22 227.25 202.51
  C 222.21 207.51 217.52 211.64 210.52 209.36
  C 206.18 207.95 200.66 211.51 198.41 214.67
  Q 194.30 220.45 189.77 223.36
  L 189.58 191.16
  Q 195.44 187.07 199.64 185.39
  Q 208.72 181.77 212.99 179.25
  Q 217.91 176.36 221.54 174.72
  Q 226.98 172.27 227.01 172.25
  Q 267.90 151.97 283.09 144.20
  Q 283.14 144.18 288.76 141.10
  Q 290.04 140.40 294.08 138.67
  C 299.84 136.21 305.19 133.23 316.80 127.25
  Q 316.88 127.21 325.08 123.24
  C 330.03 120.84 333.74 118.16 338.51 116.26
  C 346.38 113.13 353.79 107.64 362.44 104.47
  C 363.27 104.17 363.65 103.59 364.19 102.96
  Z"
/>
<path fill="#5a3522" d="
  M 189.77 223.36
  Q 194.30 220.45 198.41 214.67
  C 200.66 211.51 206.18 207.95 210.52 209.36
  C 217.52 211.64 222.21 207.51 227.25 202.51
  Q 229.55 200.22 235.52 197.67
  C 238.24 196.52 242.06 196.58 244.59 195.87
  C 251.67 193.85 254.35 188.02 258.19 184.19
  C 261.48 180.90 264.55 178.84 269.30 180.38
  Q 275.07 182.26 280.35 178.06
  C 283.84 175.28 286.71 172.19 290.34 170.23
  C 294.50 167.98 296.01 167.84 300.82 167.05
  C 304.88 166.39 309.55 164.05 311.51 161.26
  C 314.82 156.55 317.59 152.86 323.13 150.77
  C 326.33 149.57 328.15 151.95 331.24 151.71
  Q 335.97 151.36 339.65 148.15
  C 346.37 142.29 351.48 138.09 360.92 137.62
  C 361.78 137.58 363.13 137.07 363.95 136.45
  A 0.73 0.72 70.3 0 1 365.11 137.00
  L 365.17 138.46
  L 364.97 190.34
  Q 364.97 190.97 364.40 191.26
  L 189.24 278.83
  Q 190.07 274.48 189.32 271.49
  Q 188.91 269.82 189.15 268.48
  L 189.52 246.75
  L 189.53 237.04
  Q 189.91 234.45 189.38 231.76
  L 189.20 227.56
  Q 189.18 227.05 188.80 226.70
  Q 186.35 224.50 183.87 222.32
  C 179.59 218.59 178.46 213.77 172.61 212.89
  C 169.83 212.47 165.66 213.86 163.07 213.23
  C 158.42 212.09 154.97 208.61 151.12 205.40
  Q 147.51 202.39 143.50 200.81
  C 140.12 199.49 135.20 199.55 131.74 197.78
  Q 126.74 195.23 125.06 192.93
  Q 121.76 188.43 120.60 187.15
  C 115.80 181.88 110.74 184.17 106.05 183.88
  C 100.89 183.56 95.83 179.31 92.33 175.93
  C 88.22 171.96 81.05 170.80 76.07 169.46
  C 70.98 168.10 65.76 162.71 62.45 158.68
  Q 59.47 155.06 55.13 154.43
  Q 54.62 154.36 49.90 154.81
  C 39.26 155.84 34.11 143.36 24.11 141.66
  Q 16.26 140.32 13.75 139.49
  L 13.59 134.79
  Q 13.59 135.14 13.71 135.41
  Q 13.82 135.65 14.09 135.64
  Q 14.23 135.64 14.34 135.55
  Q 14.40 135.50 14.42 135.57
  Q 15.09 137.36 17.90 137.65
  C 23.54 138.22 29.14 139.44 33.08 142.99
  C 38.06 147.48 41.66 151.26 47.78 151.83
  C 49.56 151.99 51.68 150.36 53.30 150.48
  C 59.05 150.92 62.33 154.52 65.71 159.16
  C 68.36 162.79 71.02 165.01 74.82 166.39
  Q 75.90 166.78 80.32 167.40
  Q 87.69 168.44 93.25 173.65
  C 97.24 177.39 100.92 180.65 106.24 181.11
  Q 107.09 181.18 109.64 180.26
  C 113.97 178.70 118.81 181.69 121.46 184.99
  C 125.12 189.53 127.71 193.46 133.02 195.56
  Q 133.64 195.81 139.89 196.91
  Q 146.70 198.11 151.79 202.86
  C 155.54 206.36 158.85 209.57 163.69 210.19
  C 165.53 210.42 167.74 209.48 169.53 209.12
  C 172.49 208.52 175.64 210.42 178.08 212.32
  Q 179.02 213.06 182.85 218.01
  Q 185.06 220.86 187.86 223.14
  Q 189.10 224.15 189.77 223.36
  Z"
/>
<path fill="#765441" d="
  M 189.38 231.76
  Q 184.28 226.39 180.60 225.11
  C 175.27 223.25 171.38 222.18 167.22 220.06
  Q 160.37 216.59 159.40 216.06
  C 154.80 213.56 151.97 210.67 147.33 207.05
  Q 143.67 204.18 139.43 203.78
  Q 130.52 202.91 125.21 197.04
  Q 125.16 196.98 122.62 193.66
  C 120.65 191.09 114.74 185.90 111.34 186.93
  Q 102.50 189.62 95.85 183.17
  C 92.09 179.52 89.24 177.02 83.65 175.68
  Q 80.79 174.99 74.73 173.28
  C 63.76 170.19 62.54 154.62 49.83 158.47
  C 43.91 160.27 36.56 153.54 33.04 150.12
  Q 31.24 148.38 27.37 147.06
  A 0.92 0.92 0.0 0 0 26.28 148.39
  L 27.31 150.17
  A 0.78 0.77 82.5 0 1 26.44 151.31
  L 17.66 148.93
  A 0.51 0.51 0.0 0 0 17.03 149.30
  L 16.94 149.63
  Q 16.71 150.47 17.51 150.81
  Q 23.83 153.52 27.65 155.55
  C 33.85 158.82 40.49 160.22 46.05 161.48
  C 55.81 163.70 62.20 169.37 69.83 176.63
  C 70.84 177.58 72.72 178.70 73.99 179.23
  Q 80.28 181.87 86.41 184.88
  C 91.21 187.23 101.22 187.37 106.68 191.99
  Q 112.89 197.24 115.48 199.08
  C 121.00 202.99 128.37 202.91 133.30 204.66
  C 139.21 206.76 141.89 209.70 147.31 214.76
  Q 149.53 216.84 158.41 222.84
  C 162.55 225.63 165.73 225.97 172.25 227.89
  C 177.63 229.47 180.41 231.09 184.46 234.50
  Q 186.23 235.97 189.53 237.04
  L 189.52 246.75
  Q 179.50 243.76 170.34 239.05
  C 164.03 235.79 159.39 234.41 152.92 232.06
  C 147.60 230.13 144.63 227.24 140.62 224.14
  C 135.89 220.49 129.87 219.51 125.62 216.88
  Q 117.83 212.05 98.61 199.65
  C 94.82 197.21 90.03 194.30 86.39 193.49
  Q 76.75 191.32 69.50 188.05
  Q 65.65 186.32 63.09 185.76
  C 56.63 184.34 52.13 183.10 47.04 178.90
  Q 43.26 175.78 39.13 172.61
  Q 36.88 170.88 29.25 168.63
  C 24.79 167.30 19.83 162.46 13.89 161.20
  L 13.75 139.49
  Q 16.26 140.32 24.11 141.66
  C 34.11 143.36 39.26 155.84 49.90 154.81
  Q 54.62 154.36 55.13 154.43
  Q 59.47 155.06 62.45 158.68
  C 65.76 162.71 70.98 168.10 76.07 169.46
  C 81.05 170.80 88.22 171.96 92.33 175.93
  C 95.83 179.31 100.89 183.56 106.05 183.88
  C 110.74 184.17 115.80 181.88 120.60 187.15
  Q 121.76 188.43 125.06 192.93
  Q 126.74 195.23 131.74 197.78
  C 135.20 199.55 140.12 199.49 143.50 200.81
  Q 147.51 202.39 151.12 205.40
  C 154.97 208.61 158.42 212.09 163.07 213.23
  C 165.66 213.86 169.83 212.47 172.61 212.89
  C 178.46 213.77 179.59 218.59 183.87 222.32
  Q 186.35 224.50 188.80 226.70
  Q 189.18 227.05 189.20 227.56
  L 189.38 231.76
  Z
  M 65.4743 181.5807
  A 12.74 4.23 29.9 0 0 56.5386 171.5630
  A 12.74 4.23 29.9 0 0 43.3857 168.8793
  A 12.74 4.23 29.9 0 0 52.3214 178.8970
  A 12.74 4.23 29.9 0 0 65.4743 181.5807
  Z
  M 130.11 207.63
  L 129.11 209.41
  A 0.77 0.77 0.0 0 0 129.40 210.45
  L 132.91 212.44
  A 7.67 1.78 29.5 0 0 140.47 214.67
  L 140.48 214.65
  A 7.67 1.78 29.5 0 0 134.68 209.33
  L 131.16 207.34
  A 0.77 0.77 0.0 0 0 130.11 207.63
  Z"
/>
<path fill="#805e4d" d="
  M 189.38 231.76
  Q 189.91 234.45 189.53 237.04
  Q 186.23 235.97 184.46 234.50
  C 180.41 231.09 177.63 229.47 172.25 227.89
  C 165.73 225.97 162.55 225.63 158.41 222.84
  Q 149.53 216.84 147.31 214.76
  C 141.89 209.70 139.21 206.76 133.30 204.66
  C 128.37 202.91 121.00 202.99 115.48 199.08
  Q 112.89 197.24 106.68 191.99
  C 101.22 187.37 91.21 187.23 86.41 184.88
  Q 80.28 181.87 73.99 179.23
  C 72.72 178.70 70.84 177.58 69.83 176.63
  C 62.20 169.37 55.81 163.70 46.05 161.48
  C 40.49 160.22 33.85 158.82 27.65 155.55
  Q 23.83 153.52 17.51 150.81
  Q 16.71 150.47 16.94 149.63
  L 17.03 149.30
  A 0.51 0.51 0.0 0 1 17.66 148.93
  L 26.44 151.31
  A 0.78 0.77 82.5 0 0 27.31 150.17
  L 26.28 148.39
  A 0.92 0.92 0.0 0 1 27.37 147.06
  Q 31.24 148.38 33.04 150.12
  C 36.56 153.54 43.91 160.27 49.83 158.47
  C 62.54 154.62 63.76 170.19 74.73 173.28
  Q 80.79 174.99 83.65 175.68
  C 89.24 177.02 92.09 179.52 95.85 183.17
  Q 102.50 189.62 111.34 186.93
  C 114.74 185.90 120.65 191.09 122.62 193.66
  Q 125.16 196.98 125.21 197.04
  Q 130.52 202.91 139.43 203.78
  Q 143.67 204.18 147.33 207.05
  C 151.97 210.67 154.80 213.56 159.40 216.06
  Q 160.37 216.59 167.22 220.06
  C 171.38 222.18 175.27 223.25 180.60 225.11
  Q 184.28 226.39 189.38 231.76
  Z"
/>
<path fill="#805e4d" d="
  M 189.52 246.75
  L 189.15 268.48
  Q 183.06 266.40 179.73 262.81
  Q 177.54 260.45 180.72 260.96
  Q 182.76 261.30 185.57 262.79
  Q 188.03 264.09 186.16 262.04
  Q 182.21 257.69 177.61 255.34
  C 174.49 253.75 169.21 252.62 165.98 250.36
  Q 159.95 246.15 155.10 242.45
  C 153.04 240.89 148.58 238.38 146.46 238.02
  Q 138.24 236.60 132.67 233.73
  Q 128.25 231.46 125.48 230.71
  C 120.00 229.22 113.94 228.35 110.32 226.20
  C 105.15 223.14 102.29 221.34 97.41 219.25
  C 91.43 216.68 89.05 214.71 83.58 209.92
  C 78.16 205.18 71.09 202.05 64.75 198.79
  C 60.34 196.53 55.75 192.34 51.50 190.79
  C 47.20 189.22 40.94 187.60 36.43 185.33
  C 32.64 183.41 27.54 180.45 22.88 178.68
  Q 20.21 177.66 17.45 176.78
  Q 16.22 176.39 17.48 176.07
  Q 20.19 175.36 21.81 175.48
  Q 23.86 175.63 22.48 174.10
  Q 19.11 170.36 14.00 170.27
  L 13.89 161.20
  C 19.83 162.46 24.79 167.30 29.25 168.63
  Q 36.88 170.88 39.13 172.61
  Q 43.26 175.78 47.04 178.90
  C 52.13 183.10 56.63 184.34 63.09 185.76
  Q 65.65 186.32 69.50 188.05
  Q 76.75 191.32 86.39 193.49
  C 90.03 194.30 94.82 197.21 98.61 199.65
  Q 117.83 212.05 125.62 216.88
  C 129.87 219.51 135.89 220.49 140.62 224.14
  C 144.63 227.24 147.60 230.13 152.92 232.06
  C 159.39 234.41 164.03 235.79 170.34 239.05
  Q 179.50 243.76 189.52 246.75
  Z
  M 120.5207 220.4257
  A 16.19 3.48 27.5 0 0 107.7669 209.8632
  A 16.19 3.48 27.5 0 0 91.7993 205.4743
  A 16.19 3.48 27.5 0 0 104.5531 216.0368
  A 16.19 3.48 27.5 0 0 120.5207 220.4257
  Z"
/>
<ellipse fill="#805e4d" cx="0.00" cy="0.00" transform="translate(54.43,175.23) rotate(29.9)" rx="12.74" ry="4.23"/>
<path fill="#765441" d="
  M 189.15 268.48
  Q 188.91 269.82 189.32 271.49
  Q 182.75 270.46 177.57 267.19
  C 172.57 264.03 164.94 257.67 158.81 255.70
  Q 151.87 253.47 142.36 248.38
  Q 133.32 243.53 122.15 245.15
  L 14.63 191.38
  A 1.20 1.19 -76.8 0 1 13.97 190.31
  L 14.00 170.27
  Q 19.11 170.36 22.48 174.10
  Q 23.86 175.63 21.81 175.48
  Q 20.19 175.36 17.48 176.07
  Q 16.22 176.39 17.45 176.78
  Q 20.21 177.66 22.88 178.68
  C 27.54 180.45 32.64 183.41 36.43 185.33
  C 40.94 187.60 47.20 189.22 51.50 190.79
  C 55.75 192.34 60.34 196.53 64.75 198.79
  C 71.09 202.05 78.16 205.18 83.58 209.92
  C 89.05 214.71 91.43 216.68 97.41 219.25
  C 102.29 221.34 105.15 223.14 110.32 226.20
  C 113.94 228.35 120.00 229.22 125.48 230.71
  Q 128.25 231.46 132.67 233.73
  Q 138.24 236.60 146.46 238.02
  C 148.58 238.38 153.04 240.89 155.10 242.45
  Q 159.95 246.15 165.98 250.36
  C 169.21 252.62 174.49 253.75 177.61 255.34
  Q 182.21 257.69 186.16 262.04
  Q 188.03 264.09 185.57 262.79
  Q 182.76 261.30 180.72 260.96
  Q 177.54 260.45 179.73 262.81
  Q 183.06 266.40 189.15 268.48
  Z"
/>
<ellipse fill="#765441" cx="0.00" cy="0.00" transform="translate(106.16,212.95) rotate(27.5)" rx="16.19" ry="3.48"/>
<path fill="#805e4d" d="
  M 130.11 207.63
  A 0.77 0.77 0.0 0 1 131.16 207.34
  L 134.68 209.33
  A 7.67 1.78 29.5 0 1 140.48 214.65
  L 140.47 214.67
  A 7.67 1.78 29.5 0 1 132.91 212.44
  L 129.40 210.45
  A 0.77 0.77 0.0 0 1 129.11 209.41
  L 130.11 207.63
  Z"
/>
<path fill="#805e4d" d="
  M 189.32 271.49
  Q 190.07 274.48 189.24 278.83
  L 122.15 245.15
  Q 133.32 243.53 142.36 248.38
  Q 151.87 253.47 158.81 255.70
  C 164.94 257.67 172.57 264.03 177.57 267.19
  Q 182.75 270.46 189.32 271.49
  Z"
/>
</svg>
