<?xml version="1.0" encoding="UTF-8" standalone="no"?>
<!DOCTYPE svg PUBLIC "-//W3C//DTD SVG 1.1//EN" "http://www.w3.org/Graphics/SVG/1.1/DTD/svg11.dtd">
<svg xmlns="http://www.w3.org/2000/svg" version="1.1" viewBox="0.00 0.00 406.00 299.00">
<g stroke-width="2.00" fill="none" stroke-linecap="butt">
<path stroke="#82b040" vector-effect="non-scaling-stroke" d="
  M 255.63 45.12
  Q 255.99 47.59 258.47 53.01
  Q 260.00 56.34 259.56 62.16
  A 1.65 1.61 -24.0 0 1 259.21 63.04
  Q 256.53 66.31 256.45 70.73
  Q 256.26 81.20 256.58 92.72
  C 256.74 98.36 255.98 102.47 255.08 107.36
  Q 254.36 111.31 256.67 108.02
  L 260.38 102.74
  Q 260.59 102.43 260.86 102.69
  L 267.50 109.34
  Q 267.89 109.72 267.86 110.27
  Q 267.64 114.27 267.60 120.06
  Q 267.57 123.10 264.02 126.60
  Q 263.61 127.01 263.39 126.48
  L 263.05 125.66
  Q 262.83 125.13 262.50 125.59
  Q 261.94 126.36 261.93 126.75
  Q 261.73 135.16 260.95 146.57
  Q 260.92 147.08 260.61 147.49
  C 257.11 152.13 254.51 156.89 255.80 162.19
  A 1.42 1.42 0.0 0 0 258.19 162.86
  L 264.50 156.55
  A 1.20 1.20 0.0 0 1 266.30 156.66
  Q 267.47 158.18 268.48 157.24
  C 271.68 154.25 272.51 150.92 272.64 146.19
  C 272.82 139.45 272.55 133.91 275.03 129.33
  Q 276.76 126.12 278.78 122.16
  Q 280.14 119.51 280.53 122.46
  Q 281.87 132.85 280.07 143.55
  Q 279.71 145.71 280.34 146.85
  Q 281.32 148.61 282.05 149.79
  A 1.09 1.09 0.0 0 0 283.77 149.96
  C 287.30 146.22 289.62 142.23 291.37 136.81
  Q 292.92 131.98 293.91 129.56
  C 295.89 124.70 296.37 119.13 297.83 114.13
  Q 297.98 113.63 298.48 113.76
  Q 300.09 114.20 300.41 115.48
  Q 303.54 128.12 308.75 138.54"
/>
<path stroke="#668a36" vector-effect="non-scaling-stroke" d="
  M 308.75 138.54
  L 192.36 196.68"
/>
<path stroke="#82a13c" vector-effect="non-scaling-stroke" d="
  M 192.36 196.68
  Q 191.40 196.68 190.29 195.97
  Q 186.28 193.38 182.70 192.07
  Q 181.29 191.56 178.97 189.76"
/>
<path stroke="#82b040" vector-effect="non-scaling-stroke" d="
  M 178.97 189.76
  Q 179.71 189.12 180.61 188.94
  A 0.86 0.86 0.0 0 1 181.30 189.09
  L 184.87 191.59
  A 1.17 1.16 28.6 0 0 186.62 191.08
  C 190.16 182.40 186.13 176.86 181.17 170.66
  C 177.89 166.56 177.66 163.06 177.23 157.75
  Q 177.20 157.42 177.13 157.32
  Q 176.99 157.14 176.80 157.05
  Q 176.35 156.83 176.16 157.29
  L 173.66 163.55
  A 0.58 0.58 0.0 0 1 172.57 163.52
  Q 171.97 161.79 171.94 161.74
  C 167.72 154.45 164.07 148.35 165.36 140.38
  Q 165.55 139.20 166.01 140.31
  L 171.39 153.25
  Q 171.65 153.88 172.15 153.41
  C 179.04 146.87 174.89 138.21 180.12 131.24
  Q 182.27 128.38 182.57 131.95
  Q 182.98 136.76 181.08 142.98
  Q 180.97 143.31 181.22 143.56
  L 184.22 146.56
  A 0.10 0.09 26.8 0 0 184.38 146.51
  Q 185.34 141.32 187.35 133.88
  C 188.76 128.64 185.85 123.11 185.60 119.19
  C 185.46 117.01 185.90 113.05 187.93 111.69
  C 188.68 111.19 189.57 111.54 190.19 112.04
  A 0.51 0.51 0.0 0 0 191.03 111.67
  Q 191.29 105.80 191.64 101.19
  C 192.02 96.37 193.61 93.13 195.97 88.36
  C 198.72 82.80 198.85 76.54 198.81 69.93
  Q 198.80 67.50 197.73 69.68
  C 195.14 74.98 194.81 79.40 193.81 86.53
  Q 193.78 86.74 193.58 86.81
  Q 193.52 86.83 193.29 86.87
  Q 193.13 86.90 193.09 86.74
  L 191.08 78.79
  A 0.93 0.93 0.0 0 0 189.38 78.55
  L 187.52 81.78
  Q 186.34 83.82 186.01 81.49
  Q 185.85 80.38 185.86 78.60
  Q 185.87 78.10 186.23 77.75
  Q 191.24 72.84 192.21 69.84
  Q 193.41 66.14 194.76 62.97
  C 197.55 56.44 198.18 49.37 197.62 42.84
  Q 197.51 41.49 196.84 42.67
  Q 195.24 45.49 191.75 49.75
  C 187.69 54.69 188.40 59.43 188.79 65.41
  Q 188.92 67.34 187.49 66.08
  Q 187.25 65.88 186.41 66.25
  A 1.27 1.25 -1.4 0 0 185.73 66.95
  Q 184.39 70.40 183.16 72.31
  Q 181.42 75.03 180.90 77.79
  Q 179.76 83.83 182.34 89.60
  Q 183.01 91.09 183.23 89.47
  Q 183.57 86.97 184.06 85.19
  Q 184.64 83.08 185.37 85.14
  C 187.07 90.01 188.10 94.44 187.30 99.44
  Q 186.72 103.04 184.71 108.75
  Q 184.34 109.80 183.56 109.01
  L 179.55 105.01
  Q 178.69 104.15 179.30 103.10
  C 181.86 98.71 178.53 93.46 177.97 88.78
  Q 177.43 84.30 177.48 83.78
  Q 178.66 70.69 181.99 57.99
  Q 184.15 49.76 190.92 45.09
  Q 191.33 44.81 191.38 44.30
  C 191.93 38.99 190.16 35.67 188.86 31.34
  Q 188.56 30.35 188.85 28.20
  Q 190.00 19.70 187.45 11.91"
/>
<path stroke="#6a602e" vector-effect="non-scaling-stroke" d="
  M 193.00 228.81
  L 192.06 229.25
  Q 191.73 229.41 191.43 229.19
  C 184.73 224.44 182.95 216.59 174.53 214.72
  C 171.58 214.06 168.84 216.46 165.90 215.74
  Q 162.45 214.88 160.32 213.31
  C 155.69 209.90 152.06 205.27 145.89 203.27
  Q 145.18 203.05 139.02 202.03
  C 132.85 201.01 128.72 196.69 124.96 191.37
  C 122.93 188.49 117.62 184.63 114.28 185.45
  Q 110.05 186.49 109.83 186.52
  C 104.66 187.28 100.18 182.92 96.56 179.55
  Q 90.86 174.22 83.06 173.01
  Q 78.07 172.23 76.64 171.57
  C 71.71 169.29 69.16 165.42 65.94 161.50
  Q 60.44 154.80 53.41 156.78
  Q 50.48 157.61 49.15 157.30
  Q 44.10 156.14 40.98 153.03
  Q 35.21 147.27 29.60 144.90
  C 25.73 143.27 21.63 143.92 17.81 142.18
  Q 17.31 141.96 17.12 142.47
  Q 16.92 143.00 16.63 143.30"
/>
<path stroke="#4e4927" vector-effect="non-scaling-stroke" d="
  M 367.93 144.97
  Q 368.10 143.41 367.61 142.53
  Q 367.37 142.08 366.87 142.22
  Q 363.36 143.19 358.63 143.79
  C 354.41 144.32 350.58 147.01 346.58 150.47
  C 341.83 154.58 337.74 158.34 331.37 156.83
  Q 328.28 156.10 327.06 156.28
  C 322.72 156.91 319.51 160.10 316.92 163.47
  C 313.66 167.72 309.95 171.69 304.66 172.48
  C 301.47 172.96 298.60 173.09 295.98 174.35
  Q 291.11 176.70 288.97 178.72
  C 284.17 183.24 279.10 188.08 272.09 185.89
  Q 270.06 185.25 269.12 185.33
  C 265.61 185.62 261.81 188.42 259.92 190.93
  C 256.69 195.22 253.65 199.12 249.03 201.00
  Q 248.23 201.32 242.38 202.36
  Q 235.70 203.55 230.92 207.69
  C 226.40 211.63 223.60 214.52 218.58 215.75
  C 217.09 216.12 214.73 215.39 213.39 214.94
  C 209.59 213.67 204.90 216.42 202.35 219.10
  C 199.72 221.87 197.26 226.29 193.00 228.81"
/>
<path stroke="#5d7433" vector-effect="non-scaling-stroke" d="
  M 193.00 228.81
  Q 192.89 228.54 192.68 228.33
  Q 192.34 227.99 192.34 227.51
  L 192.36 196.68"
/>
<path stroke="#789b3d" vector-effect="non-scaling-stroke" d="
  M 178.97 189.76
  L 177.46 188.87"
/>
<path stroke="#82b040" vector-effect="non-scaling-stroke" d="
  M 177.46 188.87
  Q 177.81 188.52 177.53 188.23
  Q 173.56 184.22 172.92 178.85
  Q 172.79 177.76 171.96 177.37
  Q 171.48 177.14 171.26 177.63
  Q 169.82 180.83 168.98 181.73
  C 166.40 184.51 164.81 181.11 163.65 179.10
  Q 162.88 177.76 162.92 176.19
  Q 162.99 173.01 163.15 171.94
  Q 164.70 161.92 164.89 151.51
  Q 164.90 150.97 164.58 150.55
  L 156.68 140.07
  A 2.87 2.87 0.0 0 1 156.62 136.69
  L 161.83 129.28
  A 1.14 1.12 -35.2 0 0 162.00 128.35
  L 158.83 115.80
  Q 158.41 114.16 157.76 115.72
  Q 156.62 118.44 156.44 122.27
  Q 156.06 130.33 155.72 133.09
  Q 155.58 134.22 153.50 139.28
  Q 153.31 139.74 153.49 140.21
  Q 154.80 143.77 154.94 144.97
  Q 156.14 155.50 157.34 166.03
  Q 157.78 169.92 158.95 173.70
  Q 159.09 174.19 158.80 174.60
  L 157.01 177.15
  A 0.78 0.77 -52.9 0 1 155.89 177.31
  Q 153.30 175.19 151.18 171.53
  Q 149.45 168.54 149.43 164.61
  Q 149.39 156.81 151.18 150.38
  C 152.34 146.22 150.05 143.71 149.26 140.57
  Q 148.46 137.36 147.35 130.02
  Q 147.12 128.48 147.98 126.44
  Q 148.21 125.89 148.44 126.44
  L 149.44 128.84
  A 0.83 0.83 0.0 0 0 150.02 129.34
  Q 150.67 129.50 151.19 129.16
  Q 151.61 128.89 151.63 128.38
  Q 151.80 121.20 149.43 113.65
  Q 149.28 113.16 149.51 112.71
  C 151.16 109.51 152.55 108.12 152.19 104.14
  Q 151.89 100.82 148.92 91.92
  Q 148.89 91.84 148.81 91.83
  Q 148.63 91.82 148.48 91.93
  Q 148.29 92.06 148.29 92.29
  L 148.29 105.16
  Q 148.29 106.27 147.18 106.14
  L 146.73 106.09
  Q 145.68 105.96 145.57 104.91
  C 144.59 95.16 139.00 87.53 144.01 78.15
  Q 144.28 77.65 144.53 78.16
  Q 145.65 80.42 146.91 81.52
  A 1.78 1.78 0.0 0 0 149.41 81.34
  Q 151.27 79.20 151.60 78.43
  Q 153.50 74.03 153.73 78.80
  Q 153.79 79.96 153.68 82.73
  Q 153.51 86.79 153.78 100.78
  A 0.66 0.65 -78.5 0 0 154.16 101.36
  Q 154.34 101.45 154.51 101.46
  A 0.59 0.58 7.4 0 0 155.14 100.98
  Q 156.20 95.19 158.43 89.92
  C 159.06 88.41 159.29 87.17 159.33 85.76
  C 159.48 80.46 159.58 72.79 162.44 69.50
  Q 165.68 65.77 166.18 64.01
  Q 167.90 58.02 169.53 55.82
  Q 174.01 49.77 174.78 47.06
  C 175.87 43.25 176.66 39.42 178.37 35.81
  Q 178.99 34.52 180.17 34.41
  Q 182.44 34.21 182.62 34.31
  Q 185.23 35.88 183.72 33.25
  Q 182.66 31.38 180.28 28.09
  A 1.10 1.08 71.6 0 0 179.40 27.64
  L 176.67 27.64
  A 0.85 0.85 0.0 0 0 175.95 28.04
  Q 172.32 33.92 170.19 43.08
  Q 170.08 43.58 169.62 43.36
  Q 166.74 41.92 166.26 39.09
  Q 166.00 37.57 167.28 33.98
  Q 169.10 28.90 169.09 23.58"
/>
<path stroke="#82b040" vector-effect="non-scaling-stroke" d="
  M 357.23 92.34
  Q 357.67 104.46 350.56 114.84
  Q 348.98 117.14 347.22 118.15
  A 1.61 1.60 -27.8 0 1 344.98 117.46
  Q 343.75 114.92 343.24 111.73
  Q 342.45 106.66 342.26 105.92
  Q 341.19 101.66 340.21 95.85
  Q 339.59 92.15 337.97 95.54
  Q 333.92 103.99 333.56 113.36
  C 333.47 115.46 333.09 117.70 332.69 119.59
  Q 332.60 120.04 332.15 120.14
  Q 331.98 120.17 331.83 120.14
  Q 331.58 120.09 331.55 119.83
  L 330.04 102.90
  Q 329.89 101.24 328.77 102.48
  L 325.50 106.07
  Q 324.71 106.93 325.01 108.05
  C 326.53 113.88 326.75 119.16 323.18 124.48
  Q 322.89 124.91 322.55 124.51
  C 318.42 119.75 318.10 114.52 315.15 109.36
  Q 312.55 104.80 308.96 100.76
  A 0.48 0.47 -63.3 0 0 308.13 101.04
  C 307.70 106.19 308.95 109.50 311.95 115.03
  Q 313.36 117.64 314.58 123.67
  C 315.60 128.68 313.69 132.73 311.06 137.30"
/>
<path stroke="#5d8437" vector-effect="non-scaling-stroke" d="
  M 311.06 137.30
  L 308.75 138.54"
/>
<path stroke="#82a13c" vector-effect="non-scaling-stroke" d="
  M 177.46 188.87
  C 175.05 187.71 172.67 186.33 170.28 185.39
  Q 164.04 182.95 158.27 179.59
  C 154.58 177.44 149.97 175.41 147.00 173.67
  C 142.31 170.93 136.06 169.14 130.59 166.05
  Q 124.33 162.51 123.10 161.89
  C 115.46 158.02 107.87 153.92 99.97 150.59
  Q 96.64 149.18 93.95 147.50
  C 90.10 145.09 86.93 142.97 83.16 141.97
  Q 81.30 141.48 79.59 140.45
  C 76.45 138.56 71.96 137.14 68.78 135.22
  Q 61.17 130.62 56.96 128.84
  Q 53.60 127.43 49.28 125.31
  Q 48.41 124.88 41.93 121.63
  C 38.58 119.94 35.68 117.88 32.16 116.49
  Q 24.42 113.44 16.70 108.81"
/>
<path stroke="#82b040" vector-effect="non-scaling-stroke" d="
  M 91.75 66.74
  Q 91.29 69.71 92.72 73.99
  A 0.75 0.75 0.0 0 0 94.02 74.21
  Q 96.47 71.13 97.80 67.30
  A 0.61 0.61 0.0 0 1 98.44 66.90
  L 98.73 66.94
  A 0.29 0.28 -83.2 0 1 98.98 67.27
  L 97.44 80.07
  Q 97.37 80.66 97.96 80.73
  Q 100.10 81.01 102.83 82.17
  Q 103.15 82.31 103.92 82.23
  Q 104.67 82.15 105.07 82.12
  Q 105.57 82.09 105.19 82.43
  Q 102.50 84.86 102.10 85.12
  Q 99.76 86.69 100.72 89.15
  Q 101.24 90.48 101.53 93.68
  Q 101.60 94.40 101.16 93.82
  L 99.59 91.73
  A 0.79 0.79 0.0 0 0 98.19 92.06
  Q 97.41 96.12 98.43 100.78
  C 99.60 106.09 100.03 108.52 98.21 112.97
  Q 95.70 119.13 93.41 125.30
  Q 90.23 133.89 94.06 140.75
  C 95.60 143.49 98.60 146.42 101.02 149.49
  A 1.03 1.03 0.0 0 0 102.59 149.54
  L 108.02 143.58
  Q 108.64 142.90 108.79 143.80
  Q 110.10 151.73 116.71 157.00
  Q 117.13 157.34 117.63 157.13
  Q 119.35 156.41 120.85 154.39
  A 0.59 0.59 0.0 0 1 121.83 154.45
  L 126.86 163.17
  A 0.90 0.90 0.0 0 0 128.22 163.41
  Q 133.93 158.55 133.91 151.16
  C 133.90 146.73 133.49 144.00 134.80 140.58
  C 136.26 136.76 136.96 132.77 137.84 129.04
  Q 137.95 128.58 137.67 128.21
  L 136.84 127.11
  A 0.42 0.42 0.0 0 0 136.14 127.15
  L 132.90 132.77
  Q 132.55 133.38 132.38 132.69
  C 130.65 125.72 131.87 120.02 137.07 114.96
  Q 137.42 114.62 137.37 114.14
  Q 137.00 110.08 136.00 105.73
  C 135.30 102.63 135.20 99.71 135.16 96.25
  A 1.94 1.94 0.0 0 0 132.62 94.43
  C 129.31 95.49 128.57 102.16 128.94 105.00
  Q 129.03 105.69 131.14 115.57
  Q 131.22 115.96 130.90 116.20
  L 130.55 116.47
  Q 130.25 116.70 130.18 116.33
  Q 129.76 114.08 128.58 112.43
  A 1.09 1.09 0.0 0 0 126.68 112.67
  C 125.13 116.64 128.58 119.83 127.22 123.51
  Q 124.80 130.07 127.04 135.04
  Q 127.62 136.32 126.92 137.54
  L 124.75 141.31
  A 0.52 0.51 55.0 0 1 123.80 141.14
  Q 122.06 131.26 121.82 119.76
  C 121.77 116.92 122.27 113.73 122.54 111.26
  Q 122.74 109.52 122.92 104.90
  Q 123.28 95.86 126.61 87.36
  Q 127.38 85.38 127.19 77.72
  A 0.09 0.09 0.0 0 1 127.31 77.64
  Q 127.41 77.67 127.67 77.58
  A 0.35 0.34 68.0 0 1 128.11 77.77
  L 131.10 84.96
  A 1.01 1.01 0.0 0 0 132.84 85.17
  Q 135.29 81.87 138.66 79.74
  C 143.35 76.77 143.64 70.86 143.22 66.06
  Q 143.07 64.33 142.09 65.76
  Q 140.87 67.53 140.12 68.35
  Q 138.21 70.46 139.25 67.82
  Q 140.38 64.96 140.53 61.51
  C 140.69 57.83 138.53 52.94 138.59 49.19
  Q 138.66 44.77 139.34 41.08
  Q 139.85 38.26 141.06 40.86
  C 142.92 44.88 142.19 48.48 141.43 52.80
  Q 141.33 53.32 141.67 53.73
  Q 146.53 59.73 147.69 62.88
  Q 150.26 69.80 150.86 71.10
  A 0.51 0.50 -43.6 0 0 151.77 71.12
  C 154.27 66.20 153.54 63.01 151.95 57.19
  Q 150.60 52.28 150.27 47.54
  C 150.14 45.73 149.61 43.44 148.95 41.75
  Q 146.48 35.49 144.85 29.71"
/>
<path stroke="#694532" vector-effect="non-scaling-stroke" d="
  M 191.65 284.10
  Q 193.10 280.54 191.66 274.95"
/>
<path stroke="#6d4a38" vector-effect="non-scaling-stroke" d="
  M 191.66 274.95
  L 191.99 252.16"
/>
<path stroke="#694532" vector-effect="non-scaling-stroke" d="
  M 191.99 252.16
  L 192.06 243.60"
/>
<path stroke="#6d4a38" vector-effect="non-scaling-stroke" d="
  M 192.06 243.60
  L 191.93 236.97"
/>
<path stroke="#694532" vector-effect="non-scaling-stroke" d="
  M 191.93 236.97
  L 192.02 232.86
  Q 192.02 232.54 191.78 232.34
  Q 187.03 228.26 182.34 222.72
  Q 179.68 219.57 175.78 218.57
  C 172.55 217.74 169.12 219.37 165.82 218.60
  C 159.92 217.23 154.90 210.82 149.70 208.11
  C 145.52 205.94 139.35 205.59 135.87 204.05
  Q 131.59 202.16 128.18 198.58
  C 124.60 194.83 122.27 190.47 117.05 189.40
  C 114.70 188.91 111.35 189.60 109.11 189.46
  C 101.75 189.00 97.22 181.80 91.51 179.02
  C 87.42 177.03 84.25 176.52 80.84 175.66
  C 75.89 174.40 72.08 172.10 68.99 168.34
  C 65.88 164.54 61.90 159.50 56.71 159.96
  Q 51.37 160.43 49.35 160.09
  C 42.56 158.95 38.40 152.38 32.24 149.34
  Q 28.18 147.33 23.64 146.73
  C 21.22 146.41 19.01 145.59 16.67 145.02"
/>
<path stroke="#668a36" vector-effect="non-scaling-stroke" d="
  M 366.51 108.52
  Q 366.42 109.74 365.37 110.14
  Q 358.73 112.68 352.98 116.31
  C 349.35 118.60 345.41 120.21 340.75 122.31
  C 334.88 124.96 330.51 127.87 323.85 130.84
  C 319.91 132.61 315.47 135.33 311.06 137.30"
/>
<path stroke="#82b040" vector-effect="non-scaling-stroke" d="
  M 100.54 62.00
  Q 103.60 68.26 104.96 74.51
  Q 105.68 77.83 107.58 75.02
  Q 109.80 71.72 113.21 67.99
  A 1.42 1.40 -31.8 0 0 113.53 66.66
  Q 111.75 60.38 108.42 54.47"
/>
<path stroke="#7b5947" vector-effect="non-scaling-stroke" d="
  M 99.00 237.80
  Q 94.05 229.60 85.45 225.56
  C 82.58 224.20 79.90 222.91 77.17 221.05
  C 72.96 218.17 67.40 214.32 61.27 212.11
  Q 55.14 209.89 49.39 206.01
  C 44.98 203.03 42.13 202.47 35.79 200.72
  C 28.96 198.84 22.77 194.53 16.70 190.16"
/>
<path stroke="#7b5947" vector-effect="non-scaling-stroke" d="
  M 191.66 274.95
  Q 186.21 271.74 182.22 268.49
  Q 179.86 266.58 182.88 266.85
  Q 185.26 267.07 188.20 267.97
  Q 190.03 268.53 188.68 267.18
  C 183.52 262.02 178.37 260.32 169.57 256.19
  C 165.57 254.31 161.08 250.71 158.49 248.45
  C 153.55 244.14 149.06 243.65 142.48 242.17
  Q 139.30 241.45 135.34 239.49
  C 131.98 237.84 128.37 236.24 124.44 235.23
  C 118.98 233.83 115.28 233.06 109.66 229.72
  C 105.03 226.99 102.03 225.88 96.77 223.28
  Q 94.86 222.33 93.90 221.59
  C 87.41 216.57 83.16 212.61 76.75 209.28
  C 71.28 206.43 68.35 205.12 64.52 202.50
  C 61.13 200.19 57.01 196.71 53.06 195.69
  Q 41.32 192.64 31.01 186.25
  Q 28.45 184.67 20.90 182.63
  Q 19.90 182.37 20.00 181.33
  Q 20.02 181.13 20.12 180.96
  Q 20.46 180.39 21.12 180.47
  L 26.07 181.06
  Q 27.19 181.20 26.42 180.37
  Q 22.51 176.11 16.73 175.99"
/>
<path stroke="#7b5947" vector-effect="non-scaling-stroke" d="
  M 191.93 236.97
  L 185.80 231.53
  A 6.05 6.03 -18.5 0 0 182.98 230.13
  Q 178.63 229.24 176.21 228.33
  Q 162.50 223.17 152.77 214.63
  C 148.79 211.13 145.45 209.89 140.60 209.16
  C 136.75 208.58 134.24 207.66 131.34 205.62
  C 129.17 204.09 127.42 201.61 125.47 199.55
  C 121.33 195.19 118.50 192.13 112.48 192.84
  Q 108.16 193.36 107.27 193.23
  C 101.94 192.49 96.67 186.53 93.83 184.67
  C 90.11 182.21 85.96 181.23 81.48 180.18
  C 77.42 179.22 73.13 177.37 70.98 174.90
  C 66.72 170.00 63.68 165.56 58.46 163.97
  C 56.62 163.41 54.89 163.77 52.88 164.03
  C 43.60 165.22 38.94 157.12 32.55 153.56
  Q 32.09 153.30 31.70 153.65
  Q 27.31 157.52 20.73 154.21
  Q 20.10 153.90 19.83 154.56
  L 19.20 156.13
  Q 18.95 156.76 19.60 156.97
  C 22.58 157.95 26.78 159.07 29.87 160.84
  C 36.60 164.69 41.69 165.37 49.08 167.10
  C 54.84 168.45 60.53 170.80 64.09 174.25
  C 69.16 179.17 72.58 182.61 77.81 185.11
  Q 84.78 188.44 87.76 189.82
  C 95.82 193.55 104.50 193.00 111.34 198.84
  C 115.19 202.13 117.44 204.55 120.69 206.13
  C 124.71 208.07 128.83 208.63 133.16 209.56
  C 140.54 211.13 144.06 214.67 150.26 220.46
  Q 153.29 223.29 162.05 228.91
  C 167.37 232.31 177.14 232.52 183.02 236.97
  Q 187.44 240.30 192.06 243.60"
/>
<path stroke="#7b5947" vector-effect="non-scaling-stroke" d="
  M 191.99 252.16
  Q 181.54 249.51 172.05 244.44
  C 166.36 241.39 163.48 240.35 156.69 238.16
  C 150.56 236.18 147.17 232.49 142.02 228.56
  Q 140.06 227.07 134.93 225.39
  C 130.77 224.04 127.56 222.51 124.20 220.04
  C 115.72 213.78 104.07 207.19 97.73 203.19
  C 92.51 199.90 89.43 199.39 83.00 197.77
  Q 77.76 196.44 71.62 193.43
  Q 69.03 192.16 68.27 191.95
  C 63.47 190.64 55.51 189.48 50.46 185.05
  C 45.37 180.58 43.16 178.61 39.38 176.61
  Q 38.36 176.07 29.75 173.27
  Q 27.53 172.55 23.92 169.65
  C 21.75 167.90 18.74 166.83 16.70 164.32"
/>
<path stroke="#82b040" vector-effect="non-scaling-stroke" d="
  M 191.26 33.79
  L 196.22 40.36
  Q 196.50 40.74 196.92 40.52
  C 198.05 39.91 198.31 39.00 197.92 37.62
  Q 196.19 31.46 194.50 25.74
  Q 193.87 23.64 192.94 25.69
  L 190.87 30.25
  Q 190.01 32.13 191.26 33.79"
/>
<path stroke="#82b040" vector-effect="non-scaling-stroke" d="
  M 220.05 80.13
  Q 220.98 81.07 221.07 81.19
  Q 223.18 84.14 223.03 80.52
  C 222.85 75.95 221.16 72.01 218.28 67.45
  Q 213.63 60.11 210.02 50.00
  C 208.52 45.77 207.95 42.68 204.35 39.79
  A 0.70 0.70 0.0 0 0 203.23 40.16
  C 202.34 43.68 200.62 49.45 202.77 51.93
  Q 203.07 52.27 203.24 51.85
  L 205.61 45.93
  Q 206.44 43.84 206.98 46.03
  Q 207.92 49.86 210.07 57.24
  C 211.87 63.45 212.09 67.51 209.93 73.28
  A 0.79 0.79 0.0 0 1 208.46 73.31
  L 207.08 70.00
  Q 206.90 69.56 207.17 69.18
  L 210.40 64.58
  A 0.67 0.67 0.0 0 0 210.18 63.61
  Q 209.57 63.27 208.73 63.14
  Q 208.21 63.06 207.85 63.45
  L 204.48 67.16
  A 0.88 0.88 0.0 0 1 202.98 66.78
  L 202.18 63.60
  Q 202.03 63.02 201.46 63.19
  C 199.34 63.80 198.86 65.73 200.10 67.63
  C 202.96 71.98 206.17 77.39 204.18 82.15
  Q 201.86 87.72 200.56 93.89
  Q 200.20 95.64 199.19 97.27
  Q 197.99 99.23 197.42 97.00
  L 196.79 94.49
  Q 196.64 93.92 196.09 94.11
  Q 195.73 94.23 195.67 94.78
  Q 194.60 105.21 195.57 117.19
  Q 195.81 120.20 198.65 121.10
  Q 199.14 121.25 198.91 120.79
  Q 196.22 115.33 198.00 109.80
  Q 198.31 108.83 198.80 109.87
  L 201.11 114.84
  A 0.60 0.36 4.6 0 0 201.47 115.10
  Q 201.62 115.15 201.81 115.09
  Q 202.31 114.91 202.30 114.39
  Q 202.22 104.00 202.72 100.47
  Q 203.33 96.14 206.93 85.12
  Q 207.09 84.61 207.30 84.54
  Q 207.60 84.44 207.84 84.48
  Q 208.44 84.58 208.52 85.17
  L 209.09 89.18
  Q 209.15 89.59 209.56 89.57
  Q 209.76 89.56 209.96 89.52
  Q 210.47 89.40 210.61 88.90
  C 211.10 87.17 211.61 85.32 211.71 83.36
  Q 212.06 76.54 214.12 71.05
  Q 214.65 69.63 214.87 71.13
  L 216.75 84.36
  Q 216.83 84.92 216.51 85.39
  Q 215.62 86.68 214.61 87.89
  C 211.71 91.37 210.06 93.13 208.61 96.64
  Q 205.99 102.97 205.25 104.96
  A 1.14 1.13 -61.3 0 0 205.63 106.27
  Q 207.45 107.66 208.80 109.74
  Q 211.67 114.15 215.50 119.65
  Q 215.95 120.30 216.05 119.52
  C 217.27 110.52 214.82 101.49 217.91 92.43
  Q 218.66 90.23 219.26 92.48
  C 220.41 96.85 222.51 102.12 222.11 107.14
  C 221.60 113.56 217.18 119.83 218.78 127.39
  Q 219.19 129.34 217.90 127.83
  Q 213.17 122.31 209.84 115.91
  Q 209.70 115.63 209.39 115.61
  Q 209.25 115.60 209.11 115.57
  Q 208.65 115.46 208.58 115.92
  C 207.64 122.32 205.91 123.95 202.46 128.01
  Q 201.04 129.67 200.71 131.60
  Q 198.69 143.35 198.78 152.95
  Q 198.79 154.52 200.34 154.22
  Q 200.42 154.21 200.59 154.17
  Q 202.08 153.89 201.85 152.39
  Q 201.23 148.28 201.85 145.14
  C 202.86 139.97 206.07 140.07 208.08 137.02
  Q 208.76 135.99 210.85 130.94
  Q 211.03 130.50 211.52 130.47
  Q 211.68 130.46 211.84 130.49
  Q 212.28 130.59 212.25 131.04
  Q 211.98 135.63 210.66 140.38
  Q 210.08 142.47 209.58 150.70
  C 209.50 151.90 209.81 154.03 210.22 155.04
  Q 212.51 160.69 209.23 165.97
  C 204.72 173.24 201.91 179.46 205.32 187.70
  Q 205.51 188.15 205.94 187.93
  Q 210.49 185.57 211.74 182.00
  Q 216.35 168.81 220.26 161.62
  C 220.86 160.53 221.22 158.59 221.33 157.72
  Q 221.40 157.23 221.16 156.81
  Q 218.26 151.48 216.55 147.07
  C 215.59 144.59 214.23 143.21 212.18 140.79
  A 1.39 1.38 39.6 0 1 212.03 139.23
  Q 214.05 135.60 217.17 131.71
  Q 217.97 130.71 219.65 129.42
  C 222.60 127.15 223.99 123.31 225.91 118.98
  C 229.13 111.76 229.99 105.01 231.53 96.56
  Q 231.77 95.22 230.46 94.73
  L 229.66 94.43
  Q 228.56 94.03 228.41 95.31
  L 226.89 107.97
  L 226.66 108.09
  Q 226.55 108.15 226.34 108.06
  Q 226.07 107.95 226.04 107.65
  Q 225.47 102.14 223.54 97.25
  C 221.75 92.73 221.37 88.29 220.59 83.01
  C 220.46 82.09 219.87 81.28 219.64 80.37
  Q 219.40 79.48 220.05 80.13"
/>
<path stroke="#82b040" vector-effect="non-scaling-stroke" d="
  M 247.79 131.53
  Q 249.52 136.20 249.51 138.06
  Q 249.51 148.54 251.11 157.06
  A 0.41 0.41 0.0 0 0 251.85 157.22
  C 253.73 154.52 254.10 152.38 254.04 148.86
  Q 253.91 141.26 255.39 136.00
  Q 255.52 135.53 255.15 135.20
  Q 250.57 131.13 245.69 129.55
  A 0.97 0.96 23.1 0 0 244.53 130.01
  Q 241.36 136.00 242.99 142.68
  A 0.56 0.55 58.4 0 0 243.95 142.91
  Q 247.98 138.19 246.74 131.68
  A 0.40 0.40 0.0 0 1 247.28 131.23
  L 247.63 131.37
  A 0.25 0.25 0.0 0 1 247.79 131.53"
/>
<path stroke="#82b040" vector-effect="non-scaling-stroke" d="
  M 203.12 155.63
  L 203.31 164.51
  Q 203.36 166.56 204.37 164.77
  Q 205.12 163.42 206.21 161.00
  Q 206.56 160.21 205.97 159.50
  A 0.52 0.40 -82.4 0 1 205.89 159.36
  Q 204.99 157.02 203.93 155.37
  Q 203.08 154.05 203.12 155.63"
/>
<path stroke="#82b040" vector-effect="non-scaling-stroke" d="
  M 196.87 176.98
  Q 199.12 168.90 197.11 161.01
  Q 197.08 160.89 196.99 160.98
  L 189.30 169.42
  Q 189.18 169.56 189.24 169.73
  Q 191.24 176.21 189.58 183.18
  C 188.47 187.79 188.52 191.17 190.58 195.03
  A 1.12 1.11 -28.9 0 0 192.11 195.47
  C 197.85 192.22 198.58 183.77 196.88 178.04
  Q 196.72 177.51 196.87 176.98"
/>
<path stroke="#82b040" vector-effect="non-scaling-stroke" d="
  M 172.28 114.95
  Q 174.47 123.24 177.59 129.40
  Q 177.83 129.87 178.11 130.04
  Q 178.48 130.26 178.94 130.03
  Q 179.40 129.81 179.42 129.29
  C 179.51 125.65 179.09 123.27 178.44 118.13
  C 178.10 115.37 178.44 112.59 178.79 109.85
  Q 179.13 107.23 177.35 109.18
  L 175.66 111.03
  Q 173.91 112.96 173.96 110.35
  C 173.99 108.38 174.22 105.98 173.89 103.77
  Q 172.64 95.33 172.93 92.71
  Q 173.70 85.67 174.23 77.81
  C 174.51 73.53 175.43 70.92 177.03 65.53
  Q 177.85 62.74 178.30 59.12
  Q 178.52 57.40 177.47 58.78
  Q 176.22 60.42 173.84 62.18
  Q 171.01 64.29 170.32 65.52
  C 167.75 70.15 169.28 76.94 170.69 81.83
  A 0.98 0.97 -7.5 0 1 169.73 83.07
  C 166.94 83.04 165.58 84.38 164.39 86.89
  Q 163.03 89.75 161.16 92.26
  Q 160.89 92.63 161.07 93.05
  L 163.40 98.67
  A 0.44 0.44 0.0 0 0 164.21 98.66
  L 167.91 89.42
  Q 168.12 88.88 168.67 88.68
  Q 169.44 88.41 170.01 88.87
  Q 170.37 89.15 170.32 89.73
  Q 170.30 89.87 169.10 99.90
  Q 168.74 102.90 168.89 103.74
  C 169.59 107.69 169.77 110.69 168.60 114.70
  C 167.54 118.34 166.72 123.40 165.05 127.50
  C 163.76 130.67 162.23 134.22 164.99 136.58
  Q 168.09 139.23 169.26 143.24
  A 0.42 0.42 0.0 0 0 170.01 143.35
  C 173.14 138.66 176.31 132.85 173.47 127.56
  C 171.00 122.95 168.46 120.27 170.88 114.87
  Q 171.05 114.51 171.42 114.63
  Q 171.62 114.70 171.72 114.66
  Q 172.16 114.49 172.28 114.95"
/>
<path stroke="#82b040" vector-effect="non-scaling-stroke" d="
  M 64.26 105.64
  L 69.26 112.28
  A 6.81 6.72 -67.9 0 1 70.55 115.38
  Q 71.21 119.96 71.57 127.22
  Q 71.82 131.98 73.86 136.12
  A 1.79 1.79 0.0 0 0 76.80 136.52
  Q 78.05 135.10 80.83 132.01
  C 82.86 129.76 83.06 127.96 83.44 124.99
  Q 84.06 120.21 87.37 116.83
  Q 87.72 116.47 87.71 115.97
  Q 87.65 112.24 84.77 109.38
  Q 84.42 109.03 84.44 108.55
  Q 84.61 102.36 87.76 95.92
  A 6.19 6.18 -43.2 0 0 87.92 90.83
  L 85.07 83.97
  Q 84.29 82.10 83.64 84.02
  Q 79.34 96.63 82.86 107.54
  Q 83.75 110.30 81.24 108.84
  Q 78.41 107.20 75.89 104.16
  Q 75.57 103.77 75.61 103.27
  C 76.11 96.16 74.11 91.03 71.35 84.10
  Q 71.23 83.81 70.92 83.86
  Q 70.76 83.88 70.60 83.84
  A 0.41 0.41 0.0 0 0 70.11 84.08
  L 67.90 89.61
  Q 67.58 90.39 66.81 90.08
  L 66.56 89.98
  A 0.74 0.74 0.0 0 1 66.10 89.20
  L 66.59 85.11
  A 0.96 0.95 80.1 0 0 65.22 84.14
  Q 60.96 86.29 59.34 91.17
  A 1.41 1.40 15.2 0 0 60.38 92.98
  Q 61.02 93.11 61.14 93.47
  A 3.65 2.83 -44.8 0 1 60.79 96.14
  C 58.57 100.13 56.20 108.71 59.48 112.29
  A 0.70 0.70 0.0 0 0 60.68 111.97
  C 61.24 109.43 61.20 106.25 63.34 105.39
  Q 63.89 105.17 64.26 105.64"
/>
<path stroke="#7b5947" vector-effect="non-scaling-stroke" d="
  M 68.3359 187.7348
  A 12.86 4.27 32.0 0 0 59.6928 177.2988
  A 12.86 4.27 32.0 0 0 46.5241 174.1052
  A 12.86 4.27 32.0 0 0 55.1672 184.5412
  A 12.86 4.27 32.0 0 0 68.3359 187.7348"
/>
<path stroke="#7b5947" vector-effect="non-scaling-stroke" d="
  M 143.1241 220.2740
  A 5.86 1.44 32.1 0 0 138.9252 215.9401
  A 5.86 1.44 32.1 0 0 133.1959 214.0460
  A 5.86 1.44 32.1 0 0 137.3948 218.3799
  A 5.86 1.44 32.1 0 0 143.1241 220.2740"
/>
<path stroke="#7b5947" vector-effect="non-scaling-stroke" d="
  M 44.6947 183.8554
  A 7.57 2.00 27.5 0 0 38.9035 178.5860
  A 7.57 2.00 27.5 0 0 31.2653 176.8646
  A 7.57 2.00 27.5 0 0 37.0565 182.1340
  A 7.57 2.00 27.5 0 0 44.6947 183.8554"
/>
<path stroke="#7b5947" vector-effect="non-scaling-stroke" d="
  M 123.4097 226.2155
  A 16.01 3.64 28.2 0 0 111.0201 215.4421
  A 16.01 3.64 28.2 0 0 95.1903 211.0845
  A 16.01 3.64 28.2 0 0 107.5799 221.8579
  A 16.01 3.64 28.2 0 0 123.4097 226.2155"
/>
<path stroke="#7b5947" vector-effect="non-scaling-stroke" d="
  M 43.4828 199.4986
  A 6.08 1.64 27.3 0 0 38.8322 195.2527
  A 6.08 1.64 27.3 0 0 32.6772 193.9214
  A 6.08 1.64 27.3 0 0 37.3278 198.1673
  A 6.08 1.64 27.3 0 0 43.4828 199.4986"
/>
</g>
<path fill="#8bb63f" d="
  M 255.63 45.12
  Q 255.99 47.59 258.47 53.01
  Q 260.00 56.34 259.56 62.16
  A 1.65 1.61 -24.0 0 1 259.21 63.04
  Q 256.53 66.31 256.45 70.73
  Q 256.26 81.20 256.58 92.72
  C 256.74 98.36 255.98 102.47 255.08 107.36
  Q 254.36 111.31 256.67 108.02
  L 260.38 102.74
  Q 260.59 102.43 260.86 102.69
  L 267.50 109.34
  Q 267.89 109.72 267.86 110.27
  Q 267.64 114.27 267.60 120.06
  Q 267.57 123.10 264.02 126.60
  Q 263.61 127.01 263.39 126.48
  L 263.05 125.66
  Q 262.83 125.13 262.50 125.59
  Q 261.94 126.36 261.93 126.75
  Q 261.73 135.16 260.95 146.57
  Q 260.92 147.08 260.61 147.49
  C 257.11 152.13 254.51 156.89 255.80 162.19
  A 1.42 1.42 0.0 0 0 258.19 162.86
  L 264.50 156.55
  A 1.20 1.20 0.0 0 1 266.30 156.66
  Q 267.47 158.18 268.48 157.24
  C 271.68 154.25 272.51 150.92 272.64 146.19
  C 272.82 139.45 272.55 133.91 275.03 129.33
  Q 276.76 126.12 278.78 122.16
  Q 280.14 119.51 280.53 122.46
  Q 281.87 132.85 280.07 143.55
  Q 279.71 145.71 280.34 146.85
  Q 281.32 148.61 282.05 149.79
  A 1.09 1.09 0.0 0 0 283.77 149.96
  C 287.30 146.22 289.62 142.23 291.37 136.81
  Q 292.92 131.98 293.91 129.56
  C 295.89 124.70 296.37 119.13 297.83 114.13
  Q 297.98 113.63 298.48 113.76
  Q 300.09 114.20 300.41 115.48
  Q 303.54 128.12 308.75 138.54
  L 192.36 196.68
  Q 191.40 196.68 190.29 195.97
  Q 186.28 193.38 182.70 192.07
  Q 181.29 191.56 178.97 189.76
  Q 179.71 189.12 180.61 188.94
  A 0.86 0.86 0.0 0 1 181.30 189.09
  L 184.87 191.59
  A 1.17 1.16 28.6 0 0 186.62 191.08
  C 190.16 182.40 186.13 176.86 181.17 170.66
  C 177.89 166.56 177.66 163.06 177.23 157.75
  Q 177.20 157.42 177.13 157.32
  Q 176.99 157.14 176.80 157.05
  Q 176.35 156.83 176.16 157.29
  L 173.66 163.55
  A 0.58 0.58 0.0 0 1 172.57 163.52
  Q 171.97 161.79 171.94 161.74
  C 167.72 154.45 164.07 148.35 165.36 140.38
  Q 165.55 139.20 166.01 140.31
  L 171.39 153.25
  Q 171.65 153.88 172.15 153.41
  C 179.04 146.87 174.89 138.21 180.12 131.24
  Q 182.27 128.38 182.57 131.95
  Q 182.98 136.76 181.08 142.98
  Q 180.97 143.31 181.22 143.56
  L 184.22 146.56
  A 0.10 0.09 26.8 0 0 184.38 146.51
  Q 185.34 141.32 187.35 133.88
  C 188.76 128.64 185.85 123.11 185.60 119.19
  C 185.46 117.01 185.90 113.05 187.93 111.69
  C 188.68 111.19 189.57 111.54 190.19 112.04
  A 0.51 0.51 0.0 0 0 191.03 111.67
  Q 191.29 105.80 191.64 101.19
  C 192.02 96.37 193.61 93.13 195.97 88.36
  C 198.72 82.80 198.85 76.54 198.81 69.93
  Q 198.80 67.50 197.73 69.68
  C 195.14 74.98 194.81 79.40 193.81 86.53
  Q 193.78 86.74 193.58 86.81
  Q 193.52 86.83 193.29 86.87
  Q 193.13 86.90 193.09 86.74
  L 191.08 78.79
  A 0.93 0.93 0.0 0 0 189.38 78.55
  L 187.52 81.78
  Q 186.34 83.82 186.01 81.49
  Q 185.85 80.38 185.86 78.60
  Q 185.87 78.10 186.23 77.75
  Q 191.24 72.84 192.21 69.84
  Q 193.41 66.14 194.76 62.97
  C 197.55 56.44 198.18 49.37 197.62 42.84
  Q 197.51 41.49 196.84 42.67
  Q 195.24 45.49 191.75 49.75
  C 187.69 54.69 188.40 59.43 188.79 65.41
  Q 188.92 67.34 187.49 66.08
  Q 187.25 65.88 186.41 66.25
  A 1.27 1.25 -1.4 0 0 185.73 66.95
  Q 184.39 70.40 183.16 72.31
  Q 181.42 75.03 180.90 77.79
  Q 179.76 83.83 182.34 89.60
  Q 183.01 91.09 183.23 89.47
  Q 183.57 86.97 184.06 85.19
  Q 184.64 83.08 185.37 85.14
  C 187.07 90.01 188.10 94.44 187.30 99.44
  Q 186.72 103.04 184.71 108.75
  Q 184.34 109.80 183.56 109.01
  L 179.55 105.01
  Q 178.69 104.15 179.30 103.10
  C 181.86 98.71 178.53 93.46 177.97 88.78
  Q 177.43 84.30 177.48 83.78
  Q 178.66 70.69 181.99 57.99
  Q 184.15 49.76 190.92 45.09
  Q 191.33 44.81 191.38 44.30
  C 191.93 38.99 190.16 35.67 188.86 31.34
  Q 188.56 30.35 188.85 28.20
  Q 190.00 19.70 187.45 11.91
  Q 190.45 5.49 194.58 1.29
  Q 196.64 -0.80 195.56 1.93
  Q 192.68 9.23 195.41 18.48
  Q 195.75 19.60 196.08 18.48
  Q 197.15 14.91 198.65 8.80
  Q 198.75 8.39 198.95 8.27
  Q 199.07 8.19 199.28 8.21
  Q 199.62 8.24 199.71 8.57
  L 200.42 11.22
  A 0.58 0.55 54.4 0 0 201.44 11.41
  L 202.96 8.99
  Q 203.82 7.62 203.82 9.24
  L 203.82 19.04
  Q 203.82 19.16 203.93 19.23
  L 204.33 19.46
  Q 204.63 19.63 204.67 19.29
  L 205.13 15.50
  A 0.46 0.46 0.0 0 1 205.89 15.21
  L 206.81 16.05
  Q 207.09 16.30 207.43 16.14
  Q 207.81 15.95 207.89 15.39
  Q 208.22 13.09 208.47 12.23
  Q 209.18 9.83 209.87 12.23
  L 212.05 19.72
  A 0.34 0.34 0.0 0 0 212.65 19.83
  Q 214.99 16.74 218.12 14.63
  Q 219.27 13.85 218.94 15.20
  Q 217.24 22.17 219.68 30.56
  Q 219.90 31.32 220.20 30.59
  L 224.66 19.44
  Q 225.16 18.20 225.50 19.49
  Q 227.18 25.76 227.93 31.01
  Q 228.34 33.95 228.91 31.04
  Q 229.42 28.44 229.07 24.89
  Q 229.04 24.58 229.34 24.54
  Q 229.47 24.52 229.60 24.55
  Q 229.76 24.57 229.85 24.72
  Q 230.23 25.38 230.70 25.58
  Q 231.23 25.81 231.40 25.26
  L 233.17 19.35
  Q 233.64 17.77 234.15 19.64
  L 236.65 28.85
  A 0.27 0.12 -36.9 0 0 236.98 28.77
  L 241.46 24.98
  Q 243.58 23.18 242.60 25.75
  Q 241.46 28.75 241.75 32.98
  A 0.30 0.28 51.3 0 0 242.32 33.07
  L 242.86 30.36
  Q 243.37 27.80 244.39 30.24
  Q 244.99 31.70 245.26 34.91
  Q 245.40 36.64 246.50 35.30
  Q 249.64 31.50 253.40 28.85
  Q 254.57 28.04 254.13 29.39
  Q 251.84 36.43 253.80 43.99
  Q 254.13 45.22 255.63 45.12
  Z
  M 191.26 33.79
  L 196.22 40.36
  Q 196.50 40.74 196.92 40.52
  C 198.05 39.91 198.31 39.00 197.92 37.62
  Q 196.19 31.46 194.50 25.74
  Q 193.87 23.64 192.94 25.69
  L 190.87 30.25
  Q 190.01 32.13 191.26 33.79
  Z
  M 220.05 80.13
  Q 220.98 81.07 221.07 81.19
  Q 223.18 84.14 223.03 80.52
  C 222.85 75.95 221.16 72.01 218.28 67.45
  Q 213.63 60.11 210.02 50.00
  C 208.52 45.77 207.95 42.68 204.35 39.79
  A 0.70 0.70 0.0 0 0 203.23 40.16
  C 202.34 43.68 200.62 49.45 202.77 51.93
  Q 203.07 52.27 203.24 51.85
  L 205.61 45.93
  Q 206.44 43.84 206.98 46.03
  Q 207.92 49.86 210.07 57.24
  C 211.87 63.45 212.09 67.51 209.93 73.28
  A 0.79 0.79 0.0 0 1 208.46 73.31
  L 207.08 70.00
  Q 206.90 69.56 207.17 69.18
  L 210.40 64.58
  A 0.67 0.67 0.0 0 0 210.18 63.61
  Q 209.57 63.27 208.73 63.14
  Q 208.21 63.06 207.85 63.45
  L 204.48 67.16
  A 0.88 0.88 0.0 0 1 202.98 66.78
  L 202.18 63.60
  Q 202.03 63.02 201.46 63.19
  C 199.34 63.80 198.86 65.73 200.10 67.63
  C 202.96 71.98 206.17 77.39 204.18 82.15
  Q 201.86 87.72 200.56 93.89
  Q 200.20 95.64 199.19 97.27
  Q 197.99 99.23 197.42 97.00
  L 196.79 94.49
  Q 196.64 93.92 196.09 94.11
  Q 195.73 94.23 195.67 94.78
  Q 194.60 105.21 195.57 117.19
  Q 195.81 120.20 198.65 121.10
  Q 199.14 121.25 198.91 120.79
  Q 196.22 115.33 198.00 109.80
  Q 198.31 108.83 198.80 109.87
  L 201.11 114.84
  A 0.60 0.36 4.6 0 0 201.47 115.10
  Q 201.62 115.15 201.81 115.09
  Q 202.31 114.91 202.30 114.39
  Q 202.22 104.00 202.72 100.47
  Q 203.33 96.14 206.93 85.12
  Q 207.09 84.61 207.30 84.54
  Q 207.60 84.44 207.84 84.48
  Q 208.44 84.58 208.52 85.17
  L 209.09 89.18
  Q 209.15 89.59 209.56 89.57
  Q 209.76 89.56 209.96 89.52
  Q 210.47 89.40 210.61 88.90
  C 211.10 87.17 211.61 85.32 211.71 83.36
  Q 212.06 76.54 214.12 71.05
  Q 214.65 69.63 214.87 71.13
  L 216.75 84.36
  Q 216.83 84.92 216.51 85.39
  Q 215.62 86.68 214.61 87.89
  C 211.71 91.37 210.06 93.13 208.61 96.64
  Q 205.99 102.97 205.25 104.96
  A 1.14 1.13 -61.3 0 0 205.63 106.27
  Q 207.45 107.66 208.80 109.74
  Q 211.67 114.15 215.50 119.65
  Q 215.95 120.30 216.05 119.52
  C 217.27 110.52 214.82 101.49 217.91 92.43
  Q 218.66 90.23 219.26 92.48
  C 220.41 96.85 222.51 102.12 222.11 107.14
  C 221.60 113.56 217.18 119.83 218.78 127.39
  Q 219.19 129.34 217.90 127.83
  Q 213.17 122.31 209.84 115.91
  Q 209.70 115.63 209.39 115.61
  Q 209.25 115.60 209.11 115.57
  Q 208.65 115.46 208.58 115.92
  C 207.64 122.32 205.91 123.95 202.46 128.01
  Q 201.04 129.67 200.71 131.60
  Q 198.69 143.35 198.78 152.95
  Q 198.79 154.52 200.34 154.22
  Q 200.42 154.21 200.59 154.17
  Q 202.08 153.89 201.85 152.39
  Q 201.23 148.28 201.85 145.14
  C 202.86 139.97 206.07 140.07 208.08 137.02
  Q 208.76 135.99 210.85 130.94
  Q 211.03 130.50 211.52 130.47
  Q 211.68 130.46 211.84 130.49
  Q 212.28 130.59 212.25 131.04
  Q 211.98 135.63 210.66 140.38
  Q 210.08 142.47 209.58 150.70
  C 209.50 151.90 209.81 154.03 210.22 155.04
  Q 212.51 160.69 209.23 165.97
  C 204.72 173.24 201.91 179.46 205.32 187.70
  Q 205.51 188.15 205.94 187.93
  Q 210.49 185.57 211.74 182.00
  Q 216.35 168.81 220.26 161.62
  C 220.86 160.53 221.22 158.59 221.33 157.72
  Q 221.40 157.23 221.16 156.81
  Q 218.26 151.48 216.55 147.07
  C 215.59 144.59 214.23 143.21 212.18 140.79
  A 1.39 1.38 39.6 0 1 212.03 139.23
  Q 214.05 135.60 217.17 131.71
  Q 217.97 130.71 219.65 129.42
  C 222.60 127.15 223.99 123.31 225.91 118.98
  C 229.13 111.76 229.99 105.01 231.53 96.56
  Q 231.77 95.22 230.46 94.73
  L 229.66 94.43
  Q 228.56 94.03 228.41 95.31
  L 226.89 107.97
  L 226.66 108.09
  Q 226.55 108.15 226.34 108.06
  Q 226.07 107.95 226.04 107.65
  Q 225.47 102.14 223.54 97.25
  C 221.75 92.73 221.37 88.29 220.59 83.01
  C 220.46 82.09 219.87 81.28 219.64 80.37
  Q 219.40 79.48 220.05 80.13
  Z
  M 247.79 131.53
  Q 249.52 136.20 249.51 138.06
  Q 249.51 148.54 251.11 157.06
  A 0.41 0.41 0.0 0 0 251.85 157.22
  C 253.73 154.52 254.10 152.38 254.04 148.86
  Q 253.91 141.26 255.39 136.00
  Q 255.52 135.53 255.15 135.20
  Q 250.57 131.13 245.69 129.55
  A 0.97 0.96 23.1 0 0 244.53 130.01
  Q 241.36 136.00 242.99 142.68
  A 0.56 0.55 58.4 0 0 243.95 142.91
  Q 247.98 138.19 246.74 131.68
  A 0.40 0.40 0.0 0 1 247.28 131.23
  L 247.63 131.37
  A 0.25 0.25 0.0 0 1 247.79 131.53
  Z
  M 203.12 155.63
  L 203.31 164.51
  Q 203.36 166.56 204.37 164.77
  Q 205.12 163.42 206.21 161.00
  Q 206.56 160.21 205.97 159.50
  A 0.52 0.40 -82.4 0 1 205.89 159.36
  Q 204.99 157.02 203.93 155.37
  Q 203.08 154.05 203.12 155.63
  Z
  M 196.87 176.98
  Q 199.12 168.90 197.11 161.01
  Q 197.08 160.89 196.99 160.98
  L 189.30 169.42
  Q 189.18 169.56 189.24 169.73
  Q 191.24 176.21 189.58 183.18
  C 188.47 187.79 188.52 191.17 190.58 195.03
  A 1.12 1.11 -28.9 0 0 192.11 195.47
  C 197.85 192.22 198.58 183.77 196.88 178.04
  Q 196.72 177.51 196.87 176.98
  Z"
/>
<path fill="#78aa41" d="
  M 187.45 11.91
  Q 190.00 19.70 188.85 28.20
  Q 188.56 30.35 188.86 31.34
  C 190.16 35.67 191.93 38.99 191.38 44.30
  Q 191.33 44.81 190.92 45.09
  Q 184.15 49.76 181.99 57.99
  Q 178.66 70.69 177.48 83.78
  Q 177.43 84.30 177.97 88.78
  C 178.53 93.46 181.86 98.71 179.30 103.10
  Q 178.69 104.15 179.55 105.01
  L 183.56 109.01
  Q 184.34 109.80 184.71 108.75
  Q 186.72 103.04 187.30 99.44
  C 188.10 94.44 187.07 90.01 185.37 85.14
  Q 184.64 83.08 184.06 85.19
  Q 183.57 86.97 183.23 89.47
  Q 183.01 91.09 182.34 89.60
  Q 179.76 83.83 180.90 77.79
  Q 181.42 75.03 183.16 72.31
  Q 184.39 70.40 185.73 66.95
  A 1.27 1.25 -1.4 0 1 186.41 66.25
  Q 187.25 65.88 187.49 66.08
  Q 188.92 67.34 188.79 65.41
  C 188.40 59.43 187.69 54.69 191.75 49.75
  Q 195.24 45.49 196.84 42.67
  Q 197.51 41.49 197.62 42.84
  C 198.18 49.37 197.55 56.44 194.76 62.97
  Q 193.41 66.14 192.21 69.84
  Q 191.24 72.84 186.23 77.75
  Q 185.87 78.10 185.86 78.60
  Q 185.85 80.38 186.01 81.49
  Q 186.34 83.82 187.52 81.78
  L 189.38 78.55
  A 0.93 0.93 0.0 0 1 191.08 78.79
  L 193.09 86.74
  Q 193.13 86.90 193.29 86.87
  Q 193.52 86.83 193.58 86.81
  Q 193.78 86.74 193.81 86.53
  C 194.81 79.40 195.14 74.98 197.73 69.68
  Q 198.80 67.50 198.81 69.93
  C 198.85 76.54 198.72 82.80 195.97 88.36
  C 193.61 93.13 192.02 96.37 191.64 101.19
  Q 191.29 105.80 191.03 111.67
  A 0.51 0.51 0.0 0 1 190.19 112.04
  C 189.57 111.54 188.68 111.19 187.93 111.69
  C 185.90 113.05 185.46 117.01 185.60 119.19
  C 185.85 123.11 188.76 128.64 187.35 133.88
  Q 185.34 141.32 184.38 146.51
  A 0.10 0.09 26.8 0 1 184.22 146.56
  L 181.22 143.56
  Q 180.97 143.31 181.08 142.98
  Q 182.98 136.76 182.57 131.95
  Q 182.27 128.38 180.12 131.24
  C 174.89 138.21 179.04 146.87 172.15 153.41
  Q 171.65 153.88 171.39 153.25
  L 166.01 140.31
  Q 165.55 139.20 165.36 140.38
  C 164.07 148.35 167.72 154.45 171.94 161.74
  Q 171.97 161.79 172.57 163.52
  A 0.58 0.58 0.0 0 0 173.66 163.55
  L 176.16 157.29
  Q 176.35 156.83 176.80 157.05
  Q 176.99 157.14 177.13 157.32
  Q 177.20 157.42 177.23 157.75
  C 177.66 163.06 177.89 166.56 181.17 170.66
  C 186.13 176.86 190.16 182.40 186.62 191.08
  A 1.17 1.16 28.6 0 1 184.87 191.59
  L 181.30 189.09
  A 0.86 0.86 0.0 0 0 180.61 188.94
  Q 179.71 189.12 178.97 189.76
  L 177.46 188.87
  Q 177.81 188.52 177.53 188.23
  Q 173.56 184.22 172.92 178.85
  Q 172.79 177.76 171.96 177.37
  Q 171.48 177.14 171.26 177.63
  Q 169.82 180.83 168.98 181.73
  C 166.40 184.51 164.81 181.11 163.65 179.10
  Q 162.88 177.76 162.92 176.19
  Q 162.99 173.01 163.15 171.94
  Q 164.70 161.92 164.89 151.51
  Q 164.90 150.97 164.58 150.55
  L 156.68 140.07
  A 2.87 2.87 0.0 0 1 156.62 136.69
  L 161.83 129.28
  A 1.14 1.12 -35.2 0 0 162.00 128.35
  L 158.83 115.80
  Q 158.41 114.16 157.76 115.72
  Q 156.62 118.44 156.44 122.27
  Q 156.06 130.33 155.72 133.09
  Q 155.58 134.22 153.50 139.28
  Q 153.31 139.74 153.49 140.21
  Q 154.80 143.77 154.94 144.97
  Q 156.14 155.50 157.34 166.03
  Q 157.78 169.92 158.95 173.70
  Q 159.09 174.19 158.80 174.60
  L 157.01 177.15
  A 0.78 0.77 -52.9 0 1 155.89 177.31
  Q 153.30 175.19 151.18 171.53
  Q 149.45 168.54 149.43 164.61
  Q 149.39 156.81 151.18 150.38
  C 152.34 146.22 150.05 143.71 149.26 140.57
  Q 148.46 137.36 147.35 130.02
  Q 147.12 128.48 147.98 126.44
  Q 148.21 125.89 148.44 126.44
  L 149.44 128.84
  A 0.83 0.83 0.0 0 0 150.02 129.34
  Q 150.67 129.50 151.19 129.16
  Q 151.61 128.89 151.63 128.38
  Q 151.80 121.20 149.43 113.65
  Q 149.28 113.16 149.51 112.71
  C 151.16 109.51 152.55 108.12 152.19 104.14
  Q 151.89 100.82 148.92 91.92
  Q 148.89 91.84 148.81 91.83
  Q 148.63 91.82 148.48 91.93
  Q 148.29 92.06 148.29 92.29
  L 148.29 105.16
  Q 148.29 106.27 147.18 106.14
  L 146.73 106.09
  Q 145.68 105.96 145.57 104.91
  C 144.59 95.16 139.00 87.53 144.01 78.15
  Q 144.28 77.65 144.53 78.16
  Q 145.65 80.42 146.91 81.52
  A 1.78 1.78 0.0 0 0 149.41 81.34
  Q 151.27 79.20 151.60 78.43
  Q 153.50 74.03 153.73 78.80
  Q 153.79 79.96 153.68 82.73
  Q 153.51 86.79 153.78 100.78
  A 0.66 0.65 -78.5 0 0 154.16 101.36
  Q 154.34 101.45 154.51 101.46
  A 0.59 0.58 7.4 0 0 155.14 100.98
  Q 156.20 95.19 158.43 89.92
  C 159.06 88.41 159.29 87.17 159.33 85.76
  C 159.48 80.46 159.58 72.79 162.44 69.50
  Q 165.68 65.77 166.18 64.01
  Q 167.90 58.02 169.53 55.82
  Q 174.01 49.77 174.78 47.06
  C 175.87 43.25 176.66 39.42 178.37 35.81
  Q 178.99 34.52 180.17 34.41
  Q 182.44 34.21 182.62 34.31
  Q 185.23 35.88 183.72 33.25
  Q 182.66 31.38 180.28 28.09
  A 1.10 1.08 71.6 0 0 179.40 27.64
  L 176.67 27.64
  A 0.85 0.85 0.0 0 0 175.95 28.04
  Q 172.32 33.92 170.19 43.08
  Q 170.08 43.58 169.62 43.36
  Q 166.74 41.92 166.26 39.09
  Q 166.00 37.57 167.28 33.98
  Q 169.10 28.90 169.09 23.58
  C 172.93 20.82 170.40 17.42 169.05 14.68
  Q 168.91 14.40 169.12 14.16
  Q 169.19 14.08 169.37 14.03
  Q 169.53 13.98 169.64 14.10
  Q 170.76 15.38 172.01 15.81
  A 0.45 0.44 13.3 0 0 172.60 15.45
  L 173.08 11.38
  A 0.34 0.32 78.2 0 1 173.22 11.15
  Q 173.36 11.05 173.49 11.05
  Q 173.71 11.05 173.81 11.25
  L 179.13 21.59
  Q 179.92 23.12 179.74 21.40
  L 178.53 9.27
  Q 178.48 8.77 178.67 8.76
  Q 178.76 8.76 178.93 8.77
  Q 179.09 8.77 179.19 8.92
  L 181.32 11.99
  Q 182.26 13.33 182.17 11.71
  Q 181.98 8.09 181.76 7.60
  Q 178.79 1.01 183.39 6.61
  Q 184.70 8.21 187.45 11.91
  Z
  M 172.28 114.95
  Q 174.47 123.24 177.59 129.40
  Q 177.83 129.87 178.11 130.04
  Q 178.48 130.26 178.94 130.03
  Q 179.40 129.81 179.42 129.29
  C 179.51 125.65 179.09 123.27 178.44 118.13
  C 178.10 115.37 178.44 112.59 178.79 109.85
  Q 179.13 107.23 177.35 109.18
  L 175.66 111.03
  Q 173.91 112.96 173.96 110.35
  C 173.99 108.38 174.22 105.98 173.89 103.77
  Q 172.64 95.33 172.93 92.71
  Q 173.70 85.67 174.23 77.81
  C 174.51 73.53 175.43 70.92 177.03 65.53
  Q 177.85 62.74 178.30 59.12
  Q 178.52 57.40 177.47 58.78
  Q 176.22 60.42 173.84 62.18
  Q 171.01 64.29 170.32 65.52
  C 167.75 70.15 169.28 76.94 170.69 81.83
  A 0.98 0.97 -7.5 0 1 169.73 83.07
  C 166.94 83.04 165.58 84.38 164.39 86.89
  Q 163.03 89.75 161.16 92.26
  Q 160.89 92.63 161.07 93.05
  L 163.40 98.67
  A 0.44 0.44 0.0 0 0 164.21 98.66
  L 167.91 89.42
  Q 168.12 88.88 168.67 88.68
  Q 169.44 88.41 170.01 88.87
  Q 170.37 89.15 170.32 89.73
  Q 170.30 89.87 169.10 99.90
  Q 168.74 102.90 168.89 103.74
  C 169.59 107.69 169.77 110.69 168.60 114.70
  C 167.54 118.34 166.72 123.40 165.05 127.50
  C 163.76 130.67 162.23 134.22 164.99 136.58
  Q 168.09 139.23 169.26 143.24
  A 0.42 0.42 0.0 0 0 170.01 143.35
  C 173.14 138.66 176.31 132.85 173.47 127.56
  C 171.00 122.95 168.46 120.27 170.88 114.87
  Q 171.05 114.51 171.42 114.63
  Q 171.62 114.70 171.72 114.66
  Q 172.16 114.49 172.28 114.95
  Z"
/>
<path fill="#8bb63f" d="
  M 169.09 23.58
  Q 169.10 28.90 167.28 33.98
  Q 166.00 37.57 166.26 39.09
  Q 166.74 41.92 169.62 43.36
  Q 170.08 43.58 170.19 43.08
  Q 172.32 33.92 175.95 28.04
  A 0.85 0.85 0.0 0 1 176.67 27.64
  L 179.40 27.64
  A 1.10 1.08 71.6 0 1 180.28 28.09
  Q 182.66 31.38 183.72 33.25
  Q 185.23 35.88 182.62 34.31
  Q 182.44 34.21 180.17 34.41
  Q 178.99 34.52 178.37 35.81
  C 176.66 39.42 175.87 43.25 174.78 47.06
  Q 174.01 49.77 169.53 55.82
  Q 167.90 58.02 166.18 64.01
  Q 165.68 65.77 162.44 69.50
  C 159.58 72.79 159.48 80.46 159.33 85.76
  C 159.29 87.17 159.06 88.41 158.43 89.92
  Q 156.20 95.19 155.14 100.98
  A 0.59 0.58 7.4 0 1 154.51 101.46
  Q 154.34 101.45 154.16 101.36
  A 0.66 0.65 -78.5 0 1 153.78 100.78
  Q 153.51 86.79 153.68 82.73
  Q 153.79 79.96 153.73 78.80
  Q 153.50 74.03 151.60 78.43
  Q 151.27 79.20 149.41 81.34
  A 1.78 1.78 0.0 0 1 146.91 81.52
  Q 145.65 80.42 144.53 78.16
  Q 144.28 77.65 144.01 78.15
  C 139.00 87.53 144.59 95.16 145.57 104.91
  Q 145.68 105.96 146.73 106.09
  L 147.18 106.14
  Q 148.29 106.27 148.29 105.16
  L 148.29 92.29
  Q 148.29 92.06 148.48 91.93
  Q 148.63 91.82 148.81 91.83
  Q 148.89 91.84 148.92 91.92
  Q 151.89 100.82 152.19 104.14
  C 152.55 108.12 151.16 109.51 149.51 112.71
  Q 149.28 113.16 149.43 113.65
  Q 151.80 121.20 151.63 128.38
  Q 151.61 128.89 151.19 129.16
  Q 150.67 129.50 150.02 129.34
  A 0.83 0.83 0.0 0 1 149.44 128.84
  L 148.44 126.44
  Q 148.21 125.89 147.98 126.44
  Q 147.12 128.48 147.35 130.02
  Q 148.46 137.36 149.26 140.57
  C 150.05 143.71 152.34 146.22 151.18 150.38
  Q 149.39 156.81 149.43 164.61
  Q 149.45 168.54 151.18 171.53
  Q 153.30 175.19 155.89 177.31
  A 0.78 0.77 -52.9 0 0 157.01 177.15
  L 158.80 174.60
  Q 159.09 174.19 158.95 173.70
  Q 157.78 169.92 157.34 166.03
  Q 156.14 155.50 154.94 144.97
  Q 154.80 143.77 153.49 140.21
  Q 153.31 139.74 153.50 139.28
  Q 155.58 134.22 155.72 133.09
  Q 156.06 130.33 156.44 122.27
  Q 156.62 118.44 157.76 115.72
  Q 158.41 114.16 158.83 115.80
  L 162.00 128.35
  A 1.14 1.12 -35.2 0 1 161.83 129.28
  L 156.62 136.69
  A 2.87 2.87 0.0 0 0 156.68 140.07
  L 164.58 150.55
  Q 164.90 150.97 164.89 151.51
  Q 164.70 161.92 163.15 171.94
  Q 162.99 173.01 162.92 176.19
  Q 162.88 177.76 163.65 179.10
  C 164.81 181.11 166.40 184.51 168.98 181.73
  Q 169.82 180.83 171.26 177.63
  Q 171.48 177.14 171.96 177.37
  Q 172.79 177.76 172.92 178.85
  Q 173.56 184.22 177.53 188.23
  Q 177.81 188.52 177.46 188.87
  C 175.05 187.71 172.67 186.33 170.28 185.39
  Q 164.04 182.95 158.27 179.59
  C 154.58 177.44 149.97 175.41 147.00 173.67
  C 142.31 170.93 136.06 169.14 130.59 166.05
  Q 124.33 162.51 123.10 161.89
  C 115.46 158.02 107.87 153.92 99.97 150.59
  Q 96.64 149.18 93.95 147.50
  C 90.10 145.09 86.93 142.97 83.16 141.97
  Q 81.30 141.48 79.59 140.45
  C 76.45 138.56 71.96 137.14 68.78 135.22
  Q 61.17 130.62 56.96 128.84
  Q 53.60 127.43 49.28 125.31
  Q 48.41 124.88 41.93 121.63
  C 38.58 119.94 35.68 117.88 32.16 116.49
  Q 24.42 113.44 16.70 108.81
  Q 16.95 108.34 17.79 108.15
  A 0.82 0.81 -28.4 0 0 18.20 106.79
  C 12.78 101.26 11.44 94.01 15.29 87.24
  Q 15.91 86.14 17.83 82.95
  Q 18.55 81.74 18.64 83.14
  Q 19.05 89.33 22.39 95.52
  Q 22.80 96.28 22.89 95.42
  Q 23.43 89.79 26.04 83.06
  Q 26.25 82.51 26.48 83.05
  L 29.20 89.61
  Q 29.62 90.62 29.82 89.55
  Q 30.97 83.28 35.01 77.34
  Q 35.51 76.60 35.58 77.50
  Q 36.08 83.91 39.51 90.89
  Q 40.49 92.87 40.49 90.66
  L 40.49 83.75
  Q 40.49 82.17 41.57 83.32
  Q 41.88 83.65 42.15 84.14
  Q 42.74 85.21 42.89 83.99
  L 43.64 77.74
  Q 43.70 77.25 44.11 77.51
  Q 45.00 78.08 45.07 78.38
  Q 45.62 80.81 45.88 78.31
  Q 46.14 75.81 45.98 73.17
  Q 45.85 70.97 47.08 72.79
  Q 49.69 76.66 51.56 80.86
  Q 51.62 81.00 51.73 80.91
  L 52.04 80.68
  A 0.23 0.22 -19.7 0 0 52.13 80.50
  L 52.13 78.13
  Q 52.13 77.45 52.79 77.63
  Q 54.50 78.10 54.87 75.39
  Q 55.35 71.81 54.87 68.01
  Q 54.65 66.33 55.71 67.66
  Q 59.30 72.19 60.98 76.58
  Q 61.52 78.01 61.70 76.49
  L 62.13 72.98
  A 0.48 0.48 0.0 0 1 62.79 72.59
  L 63.19 72.75
  Q 63.78 72.98 64.21 72.51
  L 69.05 67.20
  A 0.54 0.53 64.9 0 1 69.98 67.54
  Q 70.01 68.14 69.67 69.15
  Q 68.99 71.14 69.32 73.30
  A 0.45 0.45 0.0 0 0 69.66 73.66
  Q 70.31 73.80 70.62 72.87
  Q 72.11 68.39 71.67 64.65
  Q 71.44 62.72 72.66 64.24
  Q 73.14 64.83 73.63 65.86
  A 0.54 0.49 -38.6 0 0 74.49 65.92
  L 79.80 59.68
  Q 81.50 57.68 81.02 60.25
  Q 80.51 62.93 80.53 66.69
  Q 80.53 67.29 81.11 67.16
  Q 81.44 67.09 81.50 66.69
  Q 82.60 58.83 87.32 52.31
  Q 87.90 51.51 88.03 52.49
  Q 88.89 59.23 91.75 66.74
  Q 91.29 69.71 92.72 73.99
  A 0.75 0.75 0.0 0 0 94.02 74.21
  Q 96.47 71.13 97.80 67.30
  A 0.61 0.61 0.0 0 1 98.44 66.90
  L 98.73 66.94
  A 0.29 0.28 -83.2 0 1 98.98 67.27
  L 97.44 80.07
  Q 97.37 80.66 97.96 80.73
  Q 100.10 81.01 102.83 82.17
  Q 103.15 82.31 103.92 82.23
  Q 104.67 82.15 105.07 82.12
  Q 105.57 82.09 105.19 82.43
  Q 102.50 84.86 102.10 85.12
  Q 99.76 86.69 100.72 89.15
  Q 101.24 90.48 101.53 93.68
  Q 101.60 94.40 101.16 93.82
  L 99.59 91.73
  A 0.79 0.79 0.0 0 0 98.19 92.06
  Q 97.41 96.12 98.43 100.78
  C 99.60 106.09 100.03 108.52 98.21 112.97
  Q 95.70 119.13 93.41 125.30
  Q 90.23 133.89 94.06 140.75
  C 95.60 143.49 98.60 146.42 101.02 149.49
  A 1.03 1.03 0.0 0 0 102.59 149.54
  L 108.02 143.58
  Q 108.64 142.90 108.79 143.80
  Q 110.10 151.73 116.71 157.00
  Q 117.13 157.34 117.63 157.13
  Q 119.35 156.41 120.85 154.39
  A 0.59 0.59 0.0 0 1 121.83 154.45
  L 126.86 163.17
  A 0.90 0.90 0.0 0 0 128.22 163.41
  Q 133.93 158.55 133.91 151.16
  C 133.90 146.73 133.49 144.00 134.80 140.58
  C 136.26 136.76 136.96 132.77 137.84 129.04
  Q 137.95 128.58 137.67 128.21
  L 136.84 127.11
  A 0.42 0.42 0.0 0 0 136.14 127.15
  L 132.90 132.77
  Q 132.55 133.38 132.38 132.69
  C 130.65 125.72 131.87 120.02 137.07 114.96
  Q 137.42 114.62 137.37 114.14
  Q 137.00 110.08 136.00 105.73
  C 135.30 102.63 135.20 99.71 135.16 96.25
  A 1.94 1.94 0.0 0 0 132.62 94.43
  C 129.31 95.49 128.57 102.16 128.94 105.00
  Q 129.03 105.69 131.14 115.57
  Q 131.22 115.96 130.90 116.20
  L 130.55 116.47
  Q 130.25 116.70 130.18 116.33
  Q 129.76 114.08 128.58 112.43
  A 1.09 1.09 0.0 0 0 126.68 112.67
  C 125.13 116.64 128.58 119.83 127.22 123.51
  Q 124.80 130.07 127.04 135.04
  Q 127.62 136.32 126.92 137.54
  L 124.75 141.31
  A 0.52 0.51 55.0 0 1 123.80 141.14
  Q 122.06 131.26 121.82 119.76
  C 121.77 116.92 122.27 113.73 122.54 111.26
  Q 122.74 109.52 122.92 104.90
  Q 123.28 95.86 126.61 87.36
  Q 127.38 85.38 127.19 77.72
  A 0.09 0.09 0.0 0 1 127.31 77.64
  Q 127.41 77.67 127.67 77.58
  A 0.35 0.34 68.0 0 1 128.11 77.77
  L 131.10 84.96
  A 1.01 1.01 0.0 0 0 132.84 85.17
  Q 135.29 81.87 138.66 79.74
  C 143.35 76.77 143.64 70.86 143.22 66.06
  Q 143.07 64.33 142.09 65.76
  Q 140.87 67.53 140.12 68.35
  Q 138.21 70.46 139.25 67.82
  Q 140.38 64.96 140.53 61.51
  C 140.69 57.83 138.53 52.94 138.59 49.19
  Q 138.66 44.77 139.34 41.08
  Q 139.85 38.26 141.06 40.86
  C 142.92 44.88 142.19 48.48 141.43 52.80
  Q 141.33 53.32 141.67 53.73
  Q 146.53 59.73 147.69 62.88
  Q 150.26 69.80 150.86 71.10
  A 0.51 0.50 -43.6 0 0 151.77 71.12
  C 154.27 66.20 153.54 63.01 151.95 57.19
  Q 150.60 52.28 150.27 47.54
  C 150.14 45.73 149.61 43.44 148.95 41.75
  Q 146.48 35.49 144.85 29.71
  Q 146.18 22.30 151.70 18.82
  Q 152.69 18.19 152.34 19.31
  Q 151.71 21.32 152.03 23.89
  Q 152.09 24.39 152.55 24.61
  Q 154.39 25.49 154.84 26.62
  Q 156.16 29.95 156.40 26.37
  Q 156.66 22.50 157.87 15.68
  Q 157.98 15.07 158.22 14.89
  Q 158.63 14.58 158.87 15.05
  L 163.90 24.81
  A 0.52 0.52 0.0 0 0 164.81 24.84
  Q 166.19 22.60 166.66 19.62
  A 0.63 0.63 0.0 0 1 167.36 19.09
  L 167.73 19.13
  A 0.22 0.21 -87.1 0 1 167.92 19.35
  Q 167.87 22.00 169.09 23.58
  Z
  M 64.26 105.64
  L 69.26 112.28
  A 6.81 6.72 -67.9 0 1 70.55 115.38
  Q 71.21 119.96 71.57 127.22
  Q 71.82 131.98 73.86 136.12
  A 1.79 1.79 0.0 0 0 76.80 136.52
  Q 78.05 135.10 80.83 132.01
  C 82.86 129.76 83.06 127.96 83.44 124.99
  Q 84.06 120.21 87.37 116.83
  Q 87.72 116.47 87.71 115.97
  Q 87.65 112.24 84.77 109.38
  Q 84.42 109.03 84.44 108.55
  Q 84.61 102.36 87.76 95.92
  A 6.19 6.18 -43.2 0 0 87.92 90.83
  L 85.07 83.97
  Q 84.29 82.10 83.64 84.02
  Q 79.34 96.63 82.86 107.54
  Q 83.75 110.30 81.24 108.84
  Q 78.41 107.20 75.89 104.16
  Q 75.57 103.77 75.61 103.27
  C 76.11 96.16 74.11 91.03 71.35 84.10
  Q 71.23 83.81 70.92 83.86
  Q 70.76 83.88 70.60 83.84
  A 0.41 0.41 0.0 0 0 70.11 84.08
  L 67.90 89.61
  Q 67.58 90.39 66.81 90.08
  L 66.56 89.98
  A 0.74 0.74 0.0 0 1 66.10 89.20
  L 66.59 85.11
  A 0.96 0.95 80.1 0 0 65.22 84.14
  Q 60.96 86.29 59.34 91.17
  A 1.41 1.40 15.2 0 0 60.38 92.98
  Q 61.02 93.11 61.14 93.47
  A 3.65 2.83 -44.8 0 1 60.79 96.14
  C 58.57 100.13 56.20 108.71 59.48 112.29
  A 0.70 0.70 0.0 0 0 60.68 111.97
  C 61.24 109.43 61.20 106.25 63.34 105.39
  Q 63.89 105.17 64.26 105.64
  Z"
/>
<path fill="#78aa41" d="
  M 144.85 29.71
  Q 146.48 35.49 148.95 41.75
  C 149.61 43.44 150.14 45.73 150.27 47.54
  Q 150.60 52.28 151.95 57.19
  C 153.54 63.01 154.27 66.20 151.77 71.12
  A 0.51 0.50 -43.6 0 1 150.86 71.10
  Q 150.26 69.80 147.69 62.88
  Q 146.53 59.73 141.67 53.73
  Q 141.33 53.32 141.43 52.80
  C 142.19 48.48 142.92 44.88 141.06 40.86
  Q 139.85 38.26 139.34 41.08
  Q 138.66 44.77 138.59 49.19
  C 138.53 52.94 140.69 57.83 140.53 61.51
  Q 140.38 64.96 139.25 67.82
  Q 138.21 70.46 140.12 68.35
  Q 140.87 67.53 142.09 65.76
  Q 143.07 64.33 143.22 66.06
  C 143.64 70.86 143.35 76.77 138.66 79.74
  Q 135.29 81.87 132.84 85.17
  A 1.01 1.01 0.0 0 1 131.10 84.96
  L 128.11 77.77
  A 0.35 0.34 68.0 0 0 127.67 77.58
  Q 127.41 77.67 127.31 77.64
  A 0.09 0.09 0.0 0 0 127.19 77.72
  Q 127.38 85.38 126.61 87.36
  Q 123.28 95.86 122.92 104.90
  Q 122.74 109.52 122.54 111.26
  C 122.27 113.73 121.77 116.92 121.82 119.76
  Q 122.06 131.26 123.80 141.14
  A 0.52 0.51 55.0 0 0 124.75 141.31
  L 126.92 137.54
  Q 127.62 136.32 127.04 135.04
  Q 124.80 130.07 127.22 123.51
  C 128.58 119.83 125.13 116.64 126.68 112.67
  A 1.09 1.09 0.0 0 1 128.58 112.43
  Q 129.76 114.08 130.18 116.33
  Q 130.25 116.70 130.55 116.47
  L 130.90 116.20
  Q 131.22 115.96 131.14 115.57
  Q 129.03 105.69 128.94 105.00
  C 128.57 102.16 129.31 95.49 132.62 94.43
  A 1.94 1.94 0.0 0 1 135.16 96.25
  C 135.20 99.71 135.30 102.63 136.00 105.73
  Q 137.00 110.08 137.37 114.14
  Q 137.42 114.62 137.07 114.96
  C 131.87 120.02 130.65 125.72 132.38 132.69
  Q 132.55 133.38 132.90 132.77
  L 136.14 127.15
  A 0.42 0.42 0.0 0 1 136.84 127.11
  L 137.67 128.21
  Q 137.95 128.58 137.84 129.04
  C 136.96 132.77 136.26 136.76 134.80 140.58
  C 133.49 144.00 133.90 146.73 133.91 151.16
  Q 133.93 158.55 128.22 163.41
  A 0.90 0.90 0.0 0 1 126.86 163.17
  L 121.83 154.45
  A 0.59 0.59 0.0 0 0 120.85 154.39
  Q 119.35 156.41 117.63 157.13
  Q 117.13 157.34 116.71 157.00
  Q 110.10 151.73 108.79 143.80
  Q 108.64 142.90 108.02 143.58
  L 102.59 149.54
  A 1.03 1.03 0.0 0 1 101.02 149.49
  C 98.60 146.42 95.60 143.49 94.06 140.75
  Q 90.23 133.89 93.41 125.30
  Q 95.70 119.13 98.21 112.97
  C 100.03 108.52 99.60 106.09 98.43 100.78
  Q 97.41 96.12 98.19 92.06
  A 0.79 0.79 0.0 0 1 99.59 91.73
  L 101.16 93.82
  Q 101.60 94.40 101.53 93.68
  Q 101.24 90.48 100.72 89.15
  Q 99.76 86.69 102.10 85.12
  Q 102.50 84.86 105.19 82.43
  Q 105.57 82.09 105.07 82.12
  Q 104.67 82.15 103.92 82.23
  Q 103.15 82.31 102.83 82.17
  Q 100.10 81.01 97.96 80.73
  Q 97.37 80.66 97.44 80.07
  L 98.98 67.27
  A 0.29 0.28 -83.2 0 0 98.73 66.94
  L 98.44 66.90
  A 0.61 0.61 0.0 0 0 97.80 67.30
  Q 96.47 71.13 94.02 74.21
  A 0.75 0.75 0.0 0 1 92.72 73.99
  Q 91.29 69.71 91.75 66.74
  Q 94.91 59.50 96.27 52.47
  Q 96.55 51.06 97.04 52.41
  L 100.54 62.00
  Q 103.60 68.26 104.96 74.51
  Q 105.68 77.83 107.58 75.02
  Q 109.80 71.72 113.21 67.99
  A 1.42 1.40 -31.8 0 0 113.53 66.66
  Q 111.75 60.38 108.42 54.47
  L 109.36 46.53
  Q 109.63 44.28 110.73 46.25
  L 113.45 51.07
  Q 113.87 51.82 113.94 50.96
  Q 114.32 46.01 112.74 41.37
  Q 111.25 36.98 114.39 40.35
  L 116.70 42.83
  A 0.45 0.43 -55.1 0 0 117.42 42.69
  Q 118.94 39.25 121.65 36.78
  Q 122.87 35.67 122.60 37.29
  Q 121.80 42.21 125.18 46.06
  Q 125.55 46.48 125.50 45.93
  Q 125.32 43.73 124.48 41.22
  Q 123.23 37.48 126.00 40.28
  Q 127.79 42.09 129.91 45.42
  A 0.57 0.56 51.3 0 0 130.79 45.52
  C 133.01 43.26 134.39 42.46 134.43 38.50
  Q 134.45 36.23 134.44 35.44
  Q 134.39 32.39 135.82 35.17
  Q 136.45 36.38 137.65 38.02
  Q 138.63 39.36 138.69 37.70
  Q 138.81 33.99 137.49 29.21
  Q 137.19 28.10 138.04 28.87
  L 139.75 30.43
  Q 140.40 31.02 140.64 30.18
  L 141.95 25.71
  Q 142.73 23.05 143.30 25.79
  Q 143.57 27.07 144.85 29.71
  Z"
/>
<path fill="#78aa41" d="
  M 191.26 33.79
  Q 190.01 32.13 190.87 30.25
  L 192.94 25.69
  Q 193.87 23.64 194.50 25.74
  Q 196.19 31.46 197.92 37.62
  C 198.31 39.00 198.05 39.91 196.92 40.52
  Q 196.50 40.74 196.22 40.36
  L 191.26 33.79
  Z"
/>
<path fill="#78aa41" d="
  M 357.23 92.34
  Q 357.67 104.46 350.56 114.84
  Q 348.98 117.14 347.22 118.15
  A 1.61 1.60 -27.8 0 1 344.98 117.46
  Q 343.75 114.92 343.24 111.73
  Q 342.45 106.66 342.26 105.92
  Q 341.19 101.66 340.21 95.85
  Q 339.59 92.15 337.97 95.54
  Q 333.92 103.99 333.56 113.36
  C 333.47 115.46 333.09 117.70 332.69 119.59
  Q 332.60 120.04 332.15 120.14
  Q 331.98 120.17 331.83 120.14
  Q 331.58 120.09 331.55 119.83
  L 330.04 102.90
  Q 329.89 101.24 328.77 102.48
  L 325.50 106.07
  Q 324.71 106.93 325.01 108.05
  C 326.53 113.88 326.75 119.16 323.18 124.48
  Q 322.89 124.91 322.55 124.51
  C 318.42 119.75 318.10 114.52 315.15 109.36
  Q 312.55 104.80 308.96 100.76
  A 0.48 0.47 -63.3 0 0 308.13 101.04
  C 307.70 106.19 308.95 109.50 311.95 115.03
  Q 313.36 117.64 314.58 123.67
  C 315.60 128.68 313.69 132.73 311.06 137.30
  L 308.75 138.54
  Q 303.54 128.12 300.41 115.48
  Q 300.09 114.20 298.48 113.76
  Q 297.98 113.63 297.83 114.13
  C 296.37 119.13 295.89 124.70 293.91 129.56
  Q 292.92 131.98 291.37 136.81
  C 289.62 142.23 287.30 146.22 283.77 149.96
  A 1.09 1.09 0.0 0 1 282.05 149.79
  Q 281.32 148.61 280.34 146.85
  Q 279.71 145.71 280.07 143.55
  Q 281.87 132.85 280.53 122.46
  Q 280.14 119.51 278.78 122.16
  Q 276.76 126.12 275.03 129.33
  C 272.55 133.91 272.82 139.45 272.64 146.19
  C 272.51 150.92 271.68 154.25 268.48 157.24
  Q 267.47 158.18 266.30 156.66
  A 1.20 1.20 0.0 0 0 264.50 156.55
  L 258.19 162.86
  A 1.42 1.42 0.0 0 1 255.80 162.19
  C 254.51 156.89 257.11 152.13 260.61 147.49
  Q 260.92 147.08 260.95 146.57
  Q 261.73 135.16 261.93 126.75
  Q 261.94 126.36 262.50 125.59
  Q 262.83 125.13 263.05 125.66
  L 263.39 126.48
  Q 263.61 127.01 264.02 126.60
  Q 267.57 123.10 267.60 120.06
  Q 267.64 114.27 267.86 110.27
  Q 267.89 109.72 267.50 109.34
  L 260.86 102.69
  Q 260.59 102.43 260.38 102.74
  L 256.67 108.02
  Q 254.36 111.31 255.08 107.36
  C 255.98 102.47 256.74 98.36 256.58 92.72
  Q 256.26 81.20 256.45 70.73
  Q 256.53 66.31 259.21 63.04
  A 1.65 1.61 -24.0 0 0 259.56 62.16
  Q 260.00 56.34 258.47 53.01
  Q 255.99 47.59 255.63 45.12
  Q 256.87 39.70 255.28 35.09
  Q 254.49 32.81 256.21 34.51
  Q 258.54 36.83 260.45 39.86
  Q 260.73 40.30 261.22 40.16
  Q 261.99 39.94 262.17 39.71
  Q 263.32 38.17 263.06 40.09
  Q 262.38 44.98 263.57 50.79
  Q 263.61 51.01 263.94 51.16
  A 0.28 0.27 21.2 0 0 264.33 50.99
  Q 265.03 48.57 265.71 46.45
  C 266.40 44.33 267.60 42.77 268.21 40.73
  Q 269.03 37.94 269.59 40.80
  Q 270.68 46.35 272.61 51.85
  A 0.43 0.42 53.2 0 0 273.36 51.96
  Q 276.39 47.66 278.65 45.77
  Q 280.42 44.27 279.70 46.48
  Q 278.87 48.97 279.71 52.01
  Q 280.16 53.62 281.00 52.17
  L 284.82 45.56
  Q 285.54 44.30 285.61 45.75
  Q 285.81 50.08 287.07 54.05
  Q 287.25 54.60 287.46 54.07
  L 287.97 52.81
  Q 288.53 51.40 289.15 52.79
  L 293.26 62.02
  Q 293.45 62.45 293.73 62.07
  Q 297.00 57.66 296.73 53.95
  Q 296.46 50.26 298.35 53.44
  Q 299.69 55.70 301.34 59.10
  Q 301.59 59.60 302.10 59.34
  L 303.39 58.68
  A 0.52 0.50 39.5 0 1 303.79 58.65
  Q 304.29 58.82 304.26 59.18
  Q 304.23 59.67 304.13 59.77
  Q 302.35 61.57 302.95 63.61
  A 0.73 0.73 0.0 0 0 304.17 63.91
  Q 307.21 60.86 309.34 59.28
  Q 311.08 58.00 310.36 60.04
  Q 308.91 64.10 310.30 70.08
  A 0.37 0.37 0.0 0 0 310.95 70.23
  L 315.81 64.12
  Q 316.68 63.02 316.75 64.44
  L 316.98 69.67
  A 0.29 0.28 55.1 0 0 317.53 69.77
  L 318.04 68.51
  Q 318.26 67.96 318.81 67.78
  L 320.84 67.11
  A 0.35 0.01 -19.5 0 0 321.12 67.00
  L 325.18 63.74
  Q 326.96 62.30 326.12 64.43
  C 325.13 66.91 323.71 71.81 325.19 74.08
  Q 325.85 75.09 326.62 76.62
  A 0.42 0.42 0.0 0 0 327.40 76.55
  Q 328.73 71.99 328.59 68.91
  Q 328.45 65.98 329.94 68.51
  Q 330.32 69.15 331.80 72.07
  A 0.92 0.90 -12.1 0 0 332.58 72.56
  Q 333.05 72.57 333.66 72.37
  Q 334.28 72.18 334.13 72.80
  Q 332.92 77.87 333.44 82.45
  Q 333.58 83.69 334.09 82.55
  L 338.18 73.44
  Q 339.02 71.57 339.53 73.56
  L 342.23 84.25
  A 0.37 0.37 0.0 0 0 342.86 84.41
  L 344.39 82.72
  Q 344.64 82.45 344.98 82.58
  L 345.27 82.70
  Q 345.63 82.84 345.48 83.20
  Q 343.51 87.75 344.68 92.92
  Q 344.97 94.16 345.54 93.03
  C 347.81 88.55 349.99 83.26 349.79 78.68
  Q 349.70 76.58 350.89 78.31
  Q 353.25 81.77 353.85 86.78
  Q 354.06 88.56 354.52 86.83
  Q 354.67 86.27 354.84 85.97
  Q 355.93 83.97 356.27 86.16
  L 357.23 92.34
  Z"
/>
<path fill="#78aa41" d="
  M 219.64 80.37
  C 219.87 81.28 220.46 82.09 220.59 83.01
  C 221.37 88.29 221.75 92.73 223.54 97.25
  Q 225.47 102.14 226.04 107.65
  Q 226.07 107.95 226.34 108.06
  Q 226.55 108.15 226.66 108.09
  L 226.89 107.97
  L 228.41 95.31
  Q 228.56 94.03 229.66 94.43
  L 230.46 94.73
  Q 231.77 95.22 231.53 96.56
  C 229.99 105.01 229.13 111.76 225.91 118.98
  C 223.99 123.31 222.60 127.15 219.65 129.42
  Q 217.97 130.71 217.17 131.71
  Q 214.05 135.60 212.03 139.23
  A 1.39 1.38 39.6 0 0 212.18 140.79
  C 214.23 143.21 215.59 144.59 216.55 147.07
  Q 218.26 151.48 221.16 156.81
  Q 221.40 157.23 221.33 157.72
  C 221.22 158.59 220.86 160.53 220.26 161.62
  Q 216.35 168.81 211.74 182.00
  Q 210.49 185.57 205.94 187.93
  Q 205.51 188.15 205.32 187.70
  C 201.91 179.46 204.72 173.24 209.23 165.97
  Q 212.51 160.69 210.22 155.04
  C 209.81 154.03 209.50 151.90 209.58 150.70
  Q 210.08 142.47 210.66 140.38
  Q 211.98 135.63 212.25 131.04
  Q 212.28 130.59 211.84 130.49
  Q 211.68 130.46 211.52 130.47
  Q 211.03 130.50 210.85 130.94
  Q 208.76 135.99 208.08 137.02
  C 206.07 140.07 202.86 139.97 201.85 145.14
  Q 201.23 148.28 201.85 152.39
  Q 202.08 153.89 200.59 154.17
  Q 200.42 154.21 200.34 154.22
  Q 198.79 154.52 198.78 152.95
  Q 198.69 143.35 200.71 131.60
  Q 201.04 129.67 202.46 128.01
  C 205.91 123.95 207.64 122.32 208.58 115.92
  Q 208.65 115.46 209.11 115.57
  Q 209.25 115.60 209.39 115.61
  Q 209.70 115.63 209.84 115.91
  Q 213.17 122.31 217.90 127.83
  Q 219.19 129.34 218.78 127.39
  C 217.18 119.83 221.60 113.56 222.11 107.14
  C 222.51 102.12 220.41 96.85 219.26 92.48
  Q 218.66 90.23 217.91 92.43
  C 214.82 101.49 217.27 110.52 216.05 119.52
  Q 215.95 120.30 215.50 119.65
  Q 211.67 114.15 208.80 109.74
  Q 207.45 107.66 205.63 106.27
  A 1.14 1.13 -61.3 0 1 205.25 104.96
  Q 205.99 102.97 208.61 96.64
  C 210.06 93.13 211.71 91.37 214.61 87.89
  Q 215.62 86.68 216.51 85.39
  Q 216.83 84.92 216.75 84.36
  L 214.87 71.13
  Q 214.65 69.63 214.12 71.05
  Q 212.06 76.54 211.71 83.36
  C 211.61 85.32 211.10 87.17 210.61 88.90
  Q 210.47 89.40 209.96 89.52
  Q 209.76 89.56 209.56 89.57
  Q 209.15 89.59 209.09 89.18
  L 208.52 85.17
  Q 208.44 84.58 207.84 84.48
  Q 207.60 84.44 207.30 84.54
  Q 207.09 84.61 206.93 85.12
  Q 203.33 96.14 202.72 100.47
  Q 202.22 104.00 202.30 114.39
  Q 202.31 114.91 201.81 115.09
  Q 201.62 115.15 201.47 115.10
  A 0.60 0.36 4.6 0 1 201.11 114.84
  L 198.80 109.87
  Q 198.31 108.83 198.00 109.80
  Q 196.22 115.33 198.91 120.79
  Q 199.14 121.25 198.65 121.10
  Q 195.81 120.20 195.57 117.19
  Q 194.60 105.21 195.67 94.78
  Q 195.73 94.23 196.09 94.11
  Q 196.64 93.92 196.79 94.49
  L 197.42 97.00
  Q 197.99 99.23 199.19 97.27
  Q 200.20 95.64 200.56 93.89
  Q 201.86 87.72 204.18 82.15
  C 206.17 77.39 202.96 71.98 200.10 67.63
  C 198.86 65.73 199.34 63.80 201.46 63.19
  Q 202.03 63.02 202.18 63.60
  L 202.98 66.78
  A 0.88 0.88 0.0 0 0 204.48 67.16
  L 207.85 63.45
  Q 208.21 63.06 208.73 63.14
  Q 209.57 63.27 210.18 63.61
  A 0.67 0.67 0.0 0 1 210.40 64.58
  L 207.17 69.18
  Q 206.90 69.56 207.08 70.00
  L 208.46 73.31
  A 0.79 0.79 0.0 0 0 209.93 73.28
  C 212.09 67.51 211.87 63.45 210.07 57.24
  Q 207.92 49.86 206.98 46.03
  Q 206.44 43.84 205.61 45.93
  L 203.24 51.85
  Q 203.07 52.27 202.77 51.93
  C 200.62 49.45 202.34 43.68 203.23 40.16
  A 0.70 0.70 0.0 0 1 204.35 39.79
  C 207.95 42.68 208.52 45.77 210.02 50.00
  Q 213.63 60.11 218.28 67.45
  C 221.16 72.01 222.85 75.95 223.03 80.52
  Q 223.18 84.14 221.07 81.19
  Q 220.98 81.07 220.05 80.13
  Q 219.40 79.48 219.64 80.37
  Z"
/>
<path fill="#8bb63f" d="
  M 108.42 54.47
  Q 111.75 60.38 113.53 66.66
  A 1.42 1.40 -31.8 0 1 113.21 67.99
  Q 109.80 71.72 107.58 75.02
  Q 105.68 77.83 104.96 74.51
  Q 103.60 68.26 100.54 62.00
  Q 100.18 53.39 97.58 46.34
  Q 96.66 43.83 98.64 45.63
  L 108.42 54.47
  Z"
/>
<path fill="#8bb63f" d="
  M 171.72 114.66
  Q 171.62 114.70 171.42 114.63
  Q 171.05 114.51 170.88 114.87
  C 168.46 120.27 171.00 122.95 173.47 127.56
  C 176.31 132.85 173.14 138.66 170.01 143.35
  A 0.42 0.42 0.0 0 1 169.26 143.24
  Q 168.09 139.23 164.99 136.58
  C 162.23 134.22 163.76 130.67 165.05 127.50
  C 166.72 123.40 167.54 118.34 168.60 114.70
  C 169.77 110.69 169.59 107.69 168.89 103.74
  Q 168.74 102.90 169.10 99.90
  Q 170.30 89.87 170.32 89.73
  Q 170.37 89.15 170.01 88.87
  Q 169.44 88.41 168.67 88.68
  Q 168.12 88.88 167.91 89.42
  L 164.21 98.66
  A 0.44 0.44 0.0 0 1 163.40 98.67
  L 161.07 93.05
  Q 160.89 92.63 161.16 92.26
  Q 163.03 89.75 164.39 86.89
  C 165.58 84.38 166.94 83.04 169.73 83.07
  A 0.98 0.97 -7.5 0 0 170.69 81.83
  C 169.28 76.94 167.75 70.15 170.32 65.52
  Q 171.01 64.29 173.84 62.18
  Q 176.22 60.42 177.47 58.78
  Q 178.52 57.40 178.30 59.12
  Q 177.85 62.74 177.03 65.53
  C 175.43 70.92 174.51 73.53 174.23 77.81
  Q 173.70 85.67 172.93 92.71
  Q 172.64 95.33 173.89 103.77
  C 174.22 105.98 173.99 108.38 173.96 110.35
  Q 173.91 112.96 175.66 111.03
  L 177.35 109.18
  Q 179.13 107.23 178.79 109.85
  C 178.44 112.59 178.10 115.37 178.44 118.13
  C 179.09 123.27 179.51 125.65 179.42 129.29
  Q 179.40 129.81 178.94 130.03
  Q 178.48 130.26 178.11 130.04
  Q 177.83 129.87 177.59 129.40
  Q 174.47 123.24 172.28 114.95
  Q 172.16 114.49 171.72 114.66
  Z"
/>
<path fill="#78aa41" d="
  M 63.34 105.39
  C 61.20 106.25 61.24 109.43 60.68 111.97
  A 0.70 0.70 0.0 0 1 59.48 112.29
  C 56.20 108.71 58.57 100.13 60.79 96.14
  A 3.65 2.83 -44.8 0 0 61.14 93.47
  Q 61.02 93.11 60.38 92.98
  A 1.41 1.40 15.2 0 1 59.34 91.17
  Q 60.96 86.29 65.22 84.14
  A 0.96 0.95 80.1 0 1 66.59 85.11
  L 66.10 89.20
  A 0.74 0.74 0.0 0 0 66.56 89.98
  L 66.81 90.08
  Q 67.58 90.39 67.90 89.61
  L 70.11 84.08
  A 0.41 0.41 0.0 0 1 70.60 83.84
  Q 70.76 83.88 70.92 83.86
  Q 71.23 83.81 71.35 84.10
  C 74.11 91.03 76.11 96.16 75.61 103.27
  Q 75.57 103.77 75.89 104.16
  Q 78.41 107.20 81.24 108.84
  Q 83.75 110.30 82.86 107.54
  Q 79.34 96.63 83.64 84.02
  Q 84.29 82.10 85.07 83.97
  L 87.92 90.83
  A 6.19 6.18 -43.2 0 1 87.76 95.92
  Q 84.61 102.36 84.44 108.55
  Q 84.42 109.03 84.77 109.38
  Q 87.65 112.24 87.71 115.97
  Q 87.72 116.47 87.37 116.83
  Q 84.06 120.21 83.44 124.99
  C 83.06 127.96 82.86 129.76 80.83 132.01
  Q 78.05 135.10 76.80 136.52
  A 1.79 1.79 0.0 0 1 73.86 136.12
  Q 71.82 131.98 71.57 127.22
  Q 71.21 119.96 70.55 115.38
  A 6.81 6.72 -67.9 0 0 69.26 112.28
  L 64.26 105.64
  Q 63.89 105.17 63.34 105.39
  Z"
/>
<path fill="#8bb63f" d="
  M 366.51 108.52
  Q 366.42 109.74 365.37 110.14
  Q 358.73 112.68 352.98 116.31
  C 349.35 118.60 345.41 120.21 340.75 122.31
  C 334.88 124.96 330.51 127.87 323.85 130.84
  C 319.91 132.61 315.47 135.33 311.06 137.30
  C 313.69 132.73 315.60 128.68 314.58 123.67
  Q 313.36 117.64 311.95 115.03
  C 308.95 109.50 307.70 106.19 308.13 101.04
  A 0.48 0.47 -63.3 0 1 308.96 100.76
  Q 312.55 104.80 315.15 109.36
  C 318.10 114.52 318.42 119.75 322.55 124.51
  Q 322.89 124.91 323.18 124.48
  C 326.75 119.16 326.53 113.88 325.01 108.05
  Q 324.71 106.93 325.50 106.07
  L 328.77 102.48
  Q 329.89 101.24 330.04 102.90
  L 331.55 119.83
  Q 331.58 120.09 331.83 120.14
  Q 331.98 120.17 332.15 120.14
  Q 332.60 120.04 332.69 119.59
  C 333.09 117.70 333.47 115.46 333.56 113.36
  Q 333.92 103.99 337.97 95.54
  Q 339.59 92.15 340.21 95.85
  Q 341.19 101.66 342.26 105.92
  Q 342.45 106.66 343.24 111.73
  Q 343.75 114.92 344.98 117.46
  A 1.61 1.60 -27.8 0 0 347.22 118.15
  Q 348.98 117.14 350.56 114.84
  Q 357.67 104.46 357.23 92.34
  L 363.36 83.19
  Q 364.13 82.03 364.11 83.43
  C 364.02 88.81 365.36 94.42 365.78 99.48
  C 365.96 101.63 365.48 104.21 365.23 106.50
  Q 365.03 108.28 366.51 108.52
  Z"
/>
<path fill="#415d2c" d="
  M 367.93 144.97
  Q 368.10 143.41 367.61 142.53
  Q 367.37 142.08 366.87 142.22
  Q 363.36 143.19 358.63 143.79
  C 354.41 144.32 350.58 147.01 346.58 150.47
  C 341.83 154.58 337.74 158.34 331.37 156.83
  Q 328.28 156.10 327.06 156.28
  C 322.72 156.91 319.51 160.10 316.92 163.47
  C 313.66 167.72 309.95 171.69 304.66 172.48
  C 301.47 172.96 298.60 173.09 295.98 174.35
  Q 291.11 176.70 288.97 178.72
  C 284.17 183.24 279.10 188.08 272.09 185.89
  Q 270.06 185.25 269.12 185.33
  C 265.61 185.62 261.81 188.42 259.92 190.93
  C 256.69 195.22 253.65 199.12 249.03 201.00
  Q 248.23 201.32 242.38 202.36
  Q 235.70 203.55 230.92 207.69
  C 226.40 211.63 223.60 214.52 218.58 215.75
  C 217.09 216.12 214.73 215.39 213.39 214.94
  C 209.59 213.67 204.90 216.42 202.35 219.10
  C 199.72 221.87 197.26 226.29 193.00 228.81
  Q 192.89 228.54 192.68 228.33
  Q 192.34 227.99 192.34 227.51
  L 192.36 196.68
  L 308.75 138.54
  L 311.06 137.30
  C 315.47 135.33 319.91 132.61 323.85 130.84
  C 330.51 127.87 334.88 124.96 340.75 122.31
  C 345.41 120.21 349.35 118.60 352.98 116.31
  Q 358.73 112.68 365.37 110.14
  Q 366.42 109.74 366.51 108.52
  Q 367.81 108.44 367.85 109.25
  Q 368.66 124.85 367.93 144.97
  Z"
/>
<path fill="#788b39" d="
  M 177.46 188.87
  L 178.97 189.76
  Q 181.29 191.56 182.70 192.07
  Q 186.28 193.38 190.29 195.97
  Q 191.40 196.68 192.36 196.68
  L 192.34 227.51
  Q 192.34 227.99 192.68 228.33
  Q 192.89 228.54 193.00 228.81
  L 192.06 229.25
  Q 191.73 229.41 191.43 229.19
  C 184.73 224.44 182.95 216.59 174.53 214.72
  C 171.58 214.06 168.84 216.46 165.90 215.74
  Q 162.45 214.88 160.32 213.31
  C 155.69 209.90 152.06 205.27 145.89 203.27
  Q 145.18 203.05 139.02 202.03
  C 132.85 201.01 128.72 196.69 124.96 191.37
  C 122.93 188.49 117.62 184.63 114.28 185.45
  Q 110.05 186.49 109.83 186.52
  C 104.66 187.28 100.18 182.92 96.56 179.55
  Q 90.86 174.22 83.06 173.01
  Q 78.07 172.23 76.64 171.57
  C 71.71 169.29 69.16 165.42 65.94 161.50
  Q 60.44 154.80 53.41 156.78
  Q 50.48 157.61 49.15 157.30
  Q 44.10 156.14 40.98 153.03
  Q 35.21 147.27 29.60 144.90
  C 25.73 143.27 21.63 143.92 17.81 142.18
  Q 17.31 141.96 17.12 142.47
  Q 16.92 143.00 16.63 143.30
  L 16.70 108.81
  Q 24.42 113.44 32.16 116.49
  C 35.68 117.88 38.58 119.94 41.93 121.63
  Q 48.41 124.88 49.28 125.31
  Q 53.60 127.43 56.96 128.84
  Q 61.17 130.62 68.78 135.22
  C 71.96 137.14 76.45 138.56 79.59 140.45
  Q 81.30 141.48 83.16 141.97
  C 86.93 142.97 90.10 145.09 93.95 147.50
  Q 96.64 149.18 99.97 150.59
  C 107.87 153.92 115.46 158.02 123.10 161.89
  Q 124.33 162.51 130.59 166.05
  C 136.06 169.14 142.31 170.93 147.00 173.67
  C 149.97 175.41 154.58 177.44 158.27 179.59
  Q 164.04 182.95 170.28 185.39
  C 172.67 186.33 175.05 187.71 177.46 188.87
  Z"
/>
<path fill="#78aa41" d="
  M 247.79 131.53
  A 0.25 0.25 0.0 0 0 247.63 131.37
  L 247.28 131.23
  A 0.40 0.40 0.0 0 0 246.74 131.68
  Q 247.98 138.19 243.95 142.91
  A 0.56 0.55 58.4 0 1 242.99 142.68
  Q 241.36 136.00 244.53 130.01
  A 0.97 0.96 23.1 0 1 245.69 129.55
  Q 250.57 131.13 255.15 135.20
  Q 255.52 135.53 255.39 136.00
  Q 253.91 141.26 254.04 148.86
  C 254.10 152.38 253.73 154.52 251.85 157.22
  A 0.41 0.41 0.0 0 1 251.11 157.06
  Q 249.51 148.54 249.51 138.06
  Q 249.52 136.20 247.79 131.53
  Z"
/>
<path fill="#5b3522" d="
  M 193.00 228.81
  C 197.26 226.29 199.72 221.87 202.35 219.10
  C 204.90 216.42 209.59 213.67 213.39 214.94
  C 214.73 215.39 217.09 216.12 218.58 215.75
  C 223.60 214.52 226.40 211.63 230.92 207.69
  Q 235.70 203.55 242.38 202.36
  Q 248.23 201.32 249.03 201.00
  C 253.65 199.12 256.69 195.22 259.92 190.93
  C 261.81 188.42 265.61 185.62 269.12 185.33
  Q 270.06 185.25 272.09 185.89
  C 279.10 188.08 284.17 183.24 288.97 178.72
  Q 291.11 176.70 295.98 174.35
  C 298.60 173.09 301.47 172.96 304.66 172.48
  C 309.95 171.69 313.66 167.72 316.92 163.47
  C 319.51 160.10 322.72 156.91 327.06 156.28
  Q 328.28 156.10 331.37 156.83
  C 337.74 158.34 341.83 154.58 346.58 150.47
  C 350.58 147.01 354.41 144.32 358.63 143.79
  Q 363.36 143.19 366.87 142.22
  Q 367.37 142.08 367.61 142.53
  Q 368.10 143.41 367.93 144.97
  L 367.81 195.94
  A 1.22 1.20 77.1 0 1 367.14 197.03
  Q 279.64 240.77 192.71 284.21
  Q 192.01 284.57 191.65 284.10
  Q 193.10 280.54 191.66 274.95
  L 191.99 252.16
  L 192.06 243.60
  L 191.93 236.97
  L 192.02 232.86
  Q 192.02 232.54 191.78 232.34
  Q 187.03 228.26 182.34 222.72
  Q 179.68 219.57 175.78 218.57
  C 172.55 217.74 169.12 219.37 165.82 218.60
  C 159.92 217.23 154.90 210.82 149.70 208.11
  C 145.52 205.94 139.35 205.59 135.87 204.05
  Q 131.59 202.16 128.18 198.58
  C 124.60 194.83 122.27 190.47 117.05 189.40
  C 114.70 188.91 111.35 189.60 109.11 189.46
  C 101.75 189.00 97.22 181.80 91.51 179.02
  C 87.42 177.03 84.25 176.52 80.84 175.66
  C 75.89 174.40 72.08 172.10 68.99 168.34
  C 65.88 164.54 61.90 159.50 56.71 159.96
  Q 51.37 160.43 49.35 160.09
  C 42.56 158.95 38.40 152.38 32.24 149.34
  Q 28.18 147.33 23.64 146.73
  C 21.22 146.41 19.01 145.59 16.67 145.02
  L 16.63 143.30
  Q 16.92 143.00 17.12 142.47
  Q 17.31 141.96 17.81 142.18
  C 21.63 143.92 25.73 143.27 29.60 144.90
  Q 35.21 147.27 40.98 153.03
  Q 44.10 156.14 49.15 157.30
  Q 50.48 157.61 53.41 156.78
  Q 60.44 154.80 65.94 161.50
  C 69.16 165.42 71.71 169.29 76.64 171.57
  Q 78.07 172.23 83.06 173.01
  Q 90.86 174.22 96.56 179.55
  C 100.18 182.92 104.66 187.28 109.83 186.52
  Q 110.05 186.49 114.28 185.45
  C 117.62 184.63 122.93 188.49 124.96 191.37
  C 128.72 196.69 132.85 201.01 139.02 202.03
  Q 145.18 203.05 145.89 203.27
  C 152.06 205.27 155.69 209.90 160.32 213.31
  Q 162.45 214.88 165.90 215.74
  C 168.84 216.46 171.58 214.06 174.53 214.72
  C 182.95 216.59 184.73 224.44 191.43 229.19
  Q 191.73 229.41 192.06 229.25
  L 193.00 228.81
  Z"
/>
<path fill="#765441" d="
  M 191.93 236.97
  L 185.80 231.53
  A 6.05 6.03 -18.5 0 0 182.98 230.13
  Q 178.63 229.24 176.21 228.33
  Q 162.50 223.17 152.77 214.63
  C 148.79 211.13 145.45 209.89 140.60 209.16
  C 136.75 208.58 134.24 207.66 131.34 205.62
  C 129.17 204.09 127.42 201.61 125.47 199.55
  C 121.33 195.19 118.50 192.13 112.48 192.84
  Q 108.16 193.36 107.27 193.23
  C 101.94 192.49 96.67 186.53 93.83 184.67
  C 90.11 182.21 85.96 181.23 81.48 180.18
  C 77.42 179.22 73.13 177.37 70.98 174.90
  C 66.72 170.00 63.68 165.56 58.46 163.97
  C 56.62 163.41 54.89 163.77 52.88 164.03
  C 43.60 165.22 38.94 157.12 32.55 153.56
  Q 32.09 153.30 31.70 153.65
  Q 27.31 157.52 20.73 154.21
  Q 20.10 153.90 19.83 154.56
  L 19.20 156.13
  Q 18.95 156.76 19.60 156.97
  C 22.58 157.95 26.78 159.07 29.87 160.84
  C 36.60 164.69 41.69 165.37 49.08 167.10
  C 54.84 168.45 60.53 170.80 64.09 174.25
  C 69.16 179.17 72.58 182.61 77.81 185.11
  Q 84.78 188.44 87.76 189.82
  C 95.82 193.55 104.50 193.00 111.34 198.84
  C 115.19 202.13 117.44 204.55 120.69 206.13
  C 124.71 208.07 128.83 208.63 133.16 209.56
  C 140.54 211.13 144.06 214.67 150.26 220.46
  Q 153.29 223.29 162.05 228.91
  C 167.37 232.31 177.14 232.52 183.02 236.97
  Q 187.44 240.30 192.06 243.60
  L 191.99 252.16
  Q 181.54 249.51 172.05 244.44
  C 166.36 241.39 163.48 240.35 156.69 238.16
  C 150.56 236.18 147.17 232.49 142.02 228.56
  Q 140.06 227.07 134.93 225.39
  C 130.77 224.04 127.56 222.51 124.20 220.04
  C 115.72 213.78 104.07 207.19 97.73 203.19
  C 92.51 199.90 89.43 199.39 83.00 197.77
  Q 77.76 196.44 71.62 193.43
  Q 69.03 192.16 68.27 191.95
  C 63.47 190.64 55.51 189.48 50.46 185.05
  C 45.37 180.58 43.16 178.61 39.38 176.61
  Q 38.36 176.07 29.75 173.27
  Q 27.53 172.55 23.92 169.65
  C 21.75 167.90 18.74 166.83 16.70 164.32
  L 16.67 145.02
  C 19.01 145.59 21.22 146.41 23.64 146.73
  Q 28.18 147.33 32.24 149.34
  C 38.40 152.38 42.56 158.95 49.35 160.09
  Q 51.37 160.43 56.71 159.96
  C 61.90 159.50 65.88 164.54 68.99 168.34
  C 72.08 172.10 75.89 174.40 80.84 175.66
  C 84.25 176.52 87.42 177.03 91.51 179.02
  C 97.22 181.80 101.75 189.00 109.11 189.46
  C 111.35 189.60 114.70 188.91 117.05 189.40
  C 122.27 190.47 124.60 194.83 128.18 198.58
  Q 131.59 202.16 135.87 204.05
  C 139.35 205.59 145.52 205.94 149.70 208.11
  C 154.90 210.82 159.92 217.23 165.82 218.60
  C 169.12 219.37 172.55 217.74 175.78 218.57
  Q 179.68 219.57 182.34 222.72
  Q 187.03 228.26 191.78 232.34
  Q 192.02 232.54 192.02 232.86
  L 191.93 236.97
  Z
  M 68.3359 187.7348
  A 12.86 4.27 32.0 0 0 59.6928 177.2988
  A 12.86 4.27 32.0 0 0 46.5241 174.1052
  A 12.86 4.27 32.0 0 0 55.1672 184.5412
  A 12.86 4.27 32.0 0 0 68.3359 187.7348
  Z
  M 143.1241 220.2740
  A 5.86 1.44 32.1 0 0 138.9252 215.9401
  A 5.86 1.44 32.1 0 0 133.1959 214.0460
  A 5.86 1.44 32.1 0 0 137.3948 218.3799
  A 5.86 1.44 32.1 0 0 143.1241 220.2740
  Z"
/>
<path fill="#7f5e4d" d="
  M 191.93 236.97
  L 192.06 243.60
  Q 187.44 240.30 183.02 236.97
  C 177.14 232.52 167.37 232.31 162.05 228.91
  Q 153.29 223.29 150.26 220.46
  C 144.06 214.67 140.54 211.13 133.16 209.56
  C 128.83 208.63 124.71 208.07 120.69 206.13
  C 117.44 204.55 115.19 202.13 111.34 198.84
  C 104.50 193.00 95.82 193.55 87.76 189.82
  Q 84.78 188.44 77.81 185.11
  C 72.58 182.61 69.16 179.17 64.09 174.25
  C 60.53 170.80 54.84 168.45 49.08 167.10
  C 41.69 165.37 36.60 164.69 29.87 160.84
  C 26.78 159.07 22.58 157.95 19.60 156.97
  Q 18.95 156.76 19.20 156.13
  L 19.83 154.56
  Q 20.10 153.90 20.73 154.21
  Q 27.31 157.52 31.70 153.65
  Q 32.09 153.30 32.55 153.56
  C 38.94 157.12 43.60 165.22 52.88 164.03
  C 54.89 163.77 56.62 163.41 58.46 163.97
  C 63.68 165.56 66.72 170.00 70.98 174.90
  C 73.13 177.37 77.42 179.22 81.48 180.18
  C 85.96 181.23 90.11 182.21 93.83 184.67
  C 96.67 186.53 101.94 192.49 107.27 193.23
  Q 108.16 193.36 112.48 192.84
  C 118.50 192.13 121.33 195.19 125.47 199.55
  C 127.42 201.61 129.17 204.09 131.34 205.62
  C 134.24 207.66 136.75 208.58 140.60 209.16
  C 145.45 209.89 148.79 211.13 152.77 214.63
  Q 162.50 223.17 176.21 228.33
  Q 178.63 229.24 182.98 230.13
  A 6.05 6.03 -18.5 0 1 185.80 231.53
  L 191.93 236.97
  Z"
/>
<path fill="#78aa41" d="
  M 203.93 155.37
  Q 204.99 157.02 205.89 159.36
  A 0.52 0.40 -82.4 0 0 205.97 159.50
  Q 206.56 160.21 206.21 161.00
  Q 205.12 163.42 204.37 164.77
  Q 203.36 166.56 203.31 164.51
  L 203.12 155.63
  Q 203.08 154.05 203.93 155.37
  Z"
/>
<path fill="#78aa41" d="
  M 196.88 178.04
  C 198.58 183.77 197.85 192.22 192.11 195.47
  A 1.12 1.11 -28.9 0 1 190.58 195.03
  C 188.52 191.17 188.47 187.79 189.58 183.18
  Q 191.24 176.21 189.24 169.73
  Q 189.18 169.56 189.30 169.42
  L 196.99 160.98
  Q 197.08 160.89 197.11 161.01
  Q 199.12 168.90 196.87 176.98
  Q 196.72 177.51 196.88 178.04
  Z"
/>
<path fill="#7f5e4d" d="
  M 191.99 252.16
  L 191.66 274.95
  Q 186.21 271.74 182.22 268.49
  Q 179.86 266.58 182.88 266.85
  Q 185.26 267.07 188.20 267.97
  Q 190.03 268.53 188.68 267.18
  C 183.52 262.02 178.37 260.32 169.57 256.19
  C 165.57 254.31 161.08 250.71 158.49 248.45
  C 153.55 244.14 149.06 243.65 142.48 242.17
  Q 139.30 241.45 135.34 239.49
  C 131.98 237.84 128.37 236.24 124.44 235.23
  C 118.98 233.83 115.28 233.06 109.66 229.72
  C 105.03 226.99 102.03 225.88 96.77 223.28
  Q 94.86 222.33 93.90 221.59
  C 87.41 216.57 83.16 212.61 76.75 209.28
  C 71.28 206.43 68.35 205.12 64.52 202.50
  C 61.13 200.19 57.01 196.71 53.06 195.69
  Q 41.32 192.64 31.01 186.25
  Q 28.45 184.67 20.90 182.63
  Q 19.90 182.37 20.00 181.33
  Q 20.02 181.13 20.12 180.96
  Q 20.46 180.39 21.12 180.47
  L 26.07 181.06
  Q 27.19 181.20 26.42 180.37
  Q 22.51 176.11 16.73 175.99
  L 16.70 164.32
  C 18.74 166.83 21.75 167.90 23.92 169.65
  Q 27.53 172.55 29.75 173.27
  Q 38.36 176.07 39.38 176.61
  C 43.16 178.61 45.37 180.58 50.46 185.05
  C 55.51 189.48 63.47 190.64 68.27 191.95
  Q 69.03 192.16 71.62 193.43
  Q 77.76 196.44 83.00 197.77
  C 89.43 199.39 92.51 199.90 97.73 203.19
  C 104.07 207.19 115.72 213.78 124.20 220.04
  C 127.56 222.51 130.77 224.04 134.93 225.39
  Q 140.06 227.07 142.02 228.56
  C 147.17 232.49 150.56 236.18 156.69 238.16
  C 163.48 240.35 166.36 241.39 172.05 244.44
  Q 181.54 249.51 191.99 252.16
  Z
  M 44.6947 183.8554
  A 7.57 2.00 27.5 0 0 38.9035 178.5860
  A 7.57 2.00 27.5 0 0 31.2653 176.8646
  A 7.57 2.00 27.5 0 0 37.0565 182.1340
  A 7.57 2.00 27.5 0 0 44.6947 183.8554
  Z
  M 123.4097 226.2155
  A 16.01 3.64 28.2 0 0 111.0201 215.4421
  A 16.01 3.64 28.2 0 0 95.1903 211.0845
  A 16.01 3.64 28.2 0 0 107.5799 221.8579
  A 16.01 3.64 28.2 0 0 123.4097 226.2155
  Z"
/>
<ellipse fill="#7f5e4d" cx="0.00" cy="0.00" transform="translate(57.43,180.92) rotate(32.0)" rx="12.86" ry="4.27"/>
<path fill="#765441" d="
  M 191.66 274.95
  Q 193.10 280.54 191.65 284.10
  L 99.00 237.80
  Q 94.05 229.60 85.45 225.56
  C 82.58 224.20 79.90 222.91 77.17 221.05
  C 72.96 218.17 67.40 214.32 61.27 212.11
  Q 55.14 209.89 49.39 206.01
  C 44.98 203.03 42.13 202.47 35.79 200.72
  C 28.96 198.84 22.77 194.53 16.70 190.16
  L 16.73 175.99
  Q 22.51 176.11 26.42 180.37
  Q 27.19 181.20 26.07 181.06
  L 21.12 180.47
  Q 20.46 180.39 20.12 180.96
  Q 20.02 181.13 20.00 181.33
  Q 19.90 182.37 20.90 182.63
  Q 28.45 184.67 31.01 186.25
  Q 41.32 192.64 53.06 195.69
  C 57.01 196.71 61.13 200.19 64.52 202.50
  C 68.35 205.12 71.28 206.43 76.75 209.28
  C 83.16 212.61 87.41 216.57 93.90 221.59
  Q 94.86 222.33 96.77 223.28
  C 102.03 225.88 105.03 226.99 109.66 229.72
  C 115.28 233.06 118.98 233.83 124.44 235.23
  C 128.37 236.24 131.98 237.84 135.34 239.49
  Q 139.30 241.45 142.48 242.17
  C 149.06 243.65 153.55 244.14 158.49 248.45
  C 161.08 250.71 165.57 254.31 169.57 256.19
  C 178.37 260.32 183.52 262.02 188.68 267.18
  Q 190.03 268.53 188.20 267.97
  Q 185.26 267.07 182.88 266.85
  Q 179.86 266.58 182.22 268.49
  Q 186.21 271.74 191.66 274.95
  Z
  M 43.4828 199.4986
  A 6.08 1.64 27.3 0 0 38.8322 195.2527
  A 6.08 1.64 27.3 0 0 32.6772 193.9214
  A 6.08 1.64 27.3 0 0 37.3278 198.1673
  A 6.08 1.64 27.3 0 0 43.4828 199.4986
  Z"
/>
<ellipse fill="#765441" cx="0.00" cy="0.00" transform="translate(37.98,180.36) rotate(27.5)" rx="7.57" ry="2.00"/>
<path fill="#7f5e4d" d="
  M 99.00 237.80
  L 17.35 196.98
  Q 16.89 196.74 16.88 196.23
  L 16.70 190.16
  C 22.77 194.53 28.96 198.84 35.79 200.72
  C 42.13 202.47 44.98 203.03 49.39 206.01
  Q 55.14 209.89 61.27 212.11
  C 67.40 214.32 72.96 218.17 77.17 221.05
  C 79.90 222.91 82.58 224.20 85.45 225.56
  Q 94.05 229.60 99.00 237.80
  Z"
/>
<ellipse fill="#7f5e4d" cx="0.00" cy="0.00" transform="translate(38.08,196.71) rotate(27.3)" rx="6.08" ry="1.64"/>
<ellipse fill="#765441" cx="0.00" cy="0.00" transform="translate(109.30,218.65) rotate(28.2)" rx="16.01" ry="3.64"/>
<ellipse fill="#7f5e4d" cx="0.00" cy="0.00" transform="translate(138.16,217.16) rotate(32.1)" rx="5.86" ry="1.44"/>
</svg>
