<svg width="90" height="72" viewBox="0 0 90 72" fill="none" xmlns="http://www.w3.org/2000/svg">
<path d="M28.3242 0C11.9712 0.282 10.3 11.6215 13.582 24.6445C12.946 25.0105 11.9001 26.1723 12.1641 28.2363C12.6561 32.0853 14.3247 33.0596 15.3867 33.1406C15.7917 36.7346 19.65 41.331 21 42V48C18 57 0 48 0 72H36C36 61.356 41.9683 56.7718 46.9453 54.1348C42.2713 52.4968 37.431 52.293 36 48V42C37.35 41.331 41.2053 36.7375 41.6133 33.1465C41.8533 32.2975 42.041 29.2602 42.041 28.5762C42.041 24.8292 41.986 17.0845 44.332 11.0215C43.513 6.94748 41.3722 3.51159 36.7852 3.05859C35.5582 1.02759 32.4132 0 28.3242 0ZM66.3691 3C62.9971 3 60.3926 6 60.3926 6C41.0666 6 51.7951 38.86 46.1191 43.582C46.1191 43.582 49.137 48.0527 60 48.0527V51.8789C57 59.9999 42 57 42 72H90C90 57 75 59.9999 72 51.8789V48.0176C82.917 48.0176 85.4473 43.6934 85.4473 43.6934C79.3363 38.6774 89.9971 3 66.3691 3Z" fill="white"/>
</svg>
