<svg width="77" height="78" viewBox="0 0 77 78" fill="none" xmlns="http://www.w3.org/2000/svg">
<path d="M41.1211 0C40.5782 0.000778146 40.0456 0.148883 39.5802 0.428525C39.1148 0.708167 38.7341 1.10886 38.4785 1.58789H38.4727L26.7422 23.3789L4.24219 0.878906L0 5.12109L72 77.1211L76.2422 72.8789L52.4707 49.1074L58.8398 37.2715L58.8281 37.2539C59.0074 36.8694 59.1211 36.452 59.1211 36C59.1211 34.344 57.7771 33 56.1211 33H44.1211V3C44.1211 2.20435 43.805 1.44129 43.2424 0.87868C42.6798 0.31607 41.9167 0 41.1211 0ZM20.8418 34.3359L17.5488 40.4531L17.5547 40.459C17.2732 40.9239 17.1234 41.4565 17.1211 42C17.1211 42.7956 17.4372 43.5587 17.9998 44.1213C18.5624 44.6839 19.3254 45 20.1211 45H31.5059L20.8418 34.3359ZM32.1211 45.6152V75C32.1211 75.7956 32.4372 76.5587 32.9998 77.1213C33.5624 77.6839 34.3254 78 35.1211 78C35.6744 77.9995 36.2169 77.8461 36.6884 77.5565C37.16 77.267 37.5422 76.8527 37.793 76.3594H37.7988L46.5703 60.0645L32.1211 45.6152Z" fill="white"/>
</svg>
