<svg width="42" height="78" viewBox="0 0 42 78" fill="none" xmlns="http://www.w3.org/2000/svg">
<path d="M24 0C23.4571 0.000778146 22.9245 0.148883 22.4591 0.428525C21.9938 0.708167 21.613 1.10886 21.3574 1.58789H21.3516L0.427734 40.4531L0.433594 40.459C0.152148 40.9239 0.00228088 41.4565 0 42C0 42.7956 0.316071 43.5587 0.87868 44.1213C1.44129 44.6839 2.20435 45 3 45H15V75C15 75.7956 15.3161 76.5587 15.8787 77.1213C16.4413 77.6839 17.2044 78 18 78C18.5533 77.9995 19.0958 77.8461 19.5673 77.5565C20.0389 77.267 20.4211 76.8527 20.6719 76.3594H20.6777L41.7188 37.2715L41.707 37.2539C41.8863 36.8694 42 36.452 42 36C42 34.344 40.656 33 39 33H27V3C27 2.20435 26.6839 1.44129 26.1213 0.87868C25.5587 0.31607 24.7956 0 24 0Z" fill="white"/>
</svg>
