<svg width="90" height="72" viewBox="0 0 90 72" fill="none" xmlns="http://www.w3.org/2000/svg">
<path d="M45 0C36.0942 0 27.9085 3.25032 21.6211 8.625C21.3059 8.87589 21.0445 9.18766 20.8525 9.54174C20.6604 9.89582 20.5416 10.2849 20.5032 10.6859C20.4647 11.0869 20.5074 11.4915 20.6287 11.8756C20.75 12.2598 20.9473 12.6155 21.2091 12.9217C21.4708 13.2279 21.7915 13.4783 22.1521 13.6579C22.5126 13.8375 22.9057 13.9426 23.3078 13.9671C23.7098 13.9915 24.1127 13.9347 24.4924 13.8001C24.872 13.6655 25.2207 13.4558 25.5176 13.1836C30.7622 8.70028 37.5498 6 45 6C60.5897 6 73.353 17.8138 74.8535 33H66L78 51L90 33H80.8477C79.3138 14.555 63.8335 0 45 0ZM12 21L0 39H9.15234C10.6862 57.445 26.1665 72 45 72C53.9058 72 62.0915 68.7497 68.3789 63.375C68.6941 63.1241 68.9555 62.8123 69.1475 62.4583C69.3396 62.1042 69.4584 61.7151 69.4968 61.3141C69.5353 60.9131 69.4926 60.5085 69.3713 60.1244C69.2501 59.7402 69.0527 59.3845 68.7909 59.0783C68.5292 58.772 68.2085 58.5217 67.8479 58.3421C67.4874 58.1625 67.0943 58.0573 66.6923 58.0329C66.2902 58.0085 65.8873 58.0653 65.5076 58.1999C65.128 58.3345 64.7793 58.5442 64.4824 58.8164C59.2378 63.2997 52.4502 66 45 66C29.4103 66 16.647 54.1862 15.1465 39H24L12 21Z" fill="white"/>
</svg>
