<svg width="30" height="30" viewBox="0 0 30 30" fill="none" xmlns="http://www.w3.org/2000/svg">
<path d="M1.39423 0C-1.54175 9.55855 0.208185 16.6339 6.18139 18.4689C6.71884 18.6339 7.21615 18.7427 7.69736 18.8277C7.50488 18.079 7.3971 17.3093 7.3971 16.5231C7.3971 15.2831 7.57036 14.1007 7.88533 12.9807C6.57295 10.272 5.23479 8.22825 5.2098 8.19075C4.82733 7.61576 4.98394 6.84107 5.55889 6.45983C6.13633 6.07733 6.90972 6.2327 7.28968 6.80894C7.37218 6.93269 8.18579 8.17137 9.16695 9.98759C10.2631 8.14137 11.8277 6.57102 13.7613 5.36854C11.539 3.08859 7.56866 1.23497 1.39423 0ZM23.7164 5.21474C16.4371 5.21474 9.89687 9.43699 9.89687 16.5231C9.89687 18.6816 10.9864 20.7195 12.5236 22.2945C10.8522 25.7834 10.0531 28.3856 10.0531 28.3856C10.0053 28.5427 9.98891 28.7077 10.0049 28.8712C10.0208 29.0346 10.0688 29.1933 10.1461 29.3382C10.2234 29.4831 10.3285 29.6113 10.4553 29.7156C10.5822 29.8199 10.7284 29.8981 10.8855 29.9459C11.0426 29.9937 11.2076 30.01 11.371 29.9941C11.5344 29.9781 11.6931 29.93 11.8379 29.8527C11.9828 29.7754 12.111 29.6703 12.2153 29.5434C12.3195 29.4165 12.3977 29.2703 12.4455 29.1132C12.4455 29.1132 14.1631 23.5253 17.8624 17.8756C19.4516 15.4819 21.4105 13.0114 23.8263 10.7395C24.3287 10.267 25.1212 10.2907 25.5937 10.7932C26.0661 11.2957 26.0424 12.087 25.54 12.5608C21.2666 16.5794 18.4508 21.35 16.7322 24.98C17.4009 25.1937 18.0638 25.3193 18.6924 25.3193C25.5868 25.3193 30 21.1286 30 11.4963V5.21474H23.7164Z" fill="#B0C5AF"/>
</svg>
