<svg width="33" height="30" viewBox="0 0 33 30" fill="none" xmlns="http://www.w3.org/2000/svg">
<path d="M27.5 0C26.406 0 25.3568 0.431005 24.5832 1.1982C23.8096 1.96539 23.375 3.00593 23.375 4.09091C23.375 5.17589 23.8096 6.21642 24.5832 6.98362C25.3568 7.75081 26.406 8.18182 27.5 8.18182C28.594 8.18182 29.6432 7.75081 30.4168 6.98362C31.1904 6.21642 31.625 5.17589 31.625 4.09091C31.625 3.00593 31.1904 1.96539 30.4168 1.1982C29.6432 0.431005 28.594 0 27.5 0ZM16.5 4.09091C15.406 4.09091 14.3568 4.52191 13.5832 5.28911C12.8096 6.0563 12.375 7.09684 12.375 8.18182C12.375 9.2668 12.8096 10.3073 13.5832 11.0745C14.3568 11.8417 15.406 12.2727 16.5 12.2727C17.594 12.2727 18.6432 11.8417 19.4168 11.0745C20.1904 10.3073 20.625 9.2668 20.625 8.18182C20.625 7.09684 20.1904 6.0563 19.4168 5.28911C18.6432 4.52191 17.594 4.09091 16.5 4.09091ZM5.5 8.18182C4.40598 8.18182 3.35677 8.61282 2.58318 9.38002C1.8096 10.1472 1.375 11.1878 1.375 12.2727C1.375 13.3577 1.8096 14.3982 2.58318 15.1654C3.35677 15.9326 4.40598 16.3636 5.5 16.3636C6.59402 16.3636 7.64323 15.9326 8.41682 15.1654C9.1904 14.3982 9.625 13.3577 9.625 12.2727C9.625 11.1878 9.1904 10.1472 8.41682 9.38002C7.64323 8.61282 6.59402 8.18182 5.5 8.18182ZM26.125 10.9091C24.2605 10.9091 22.7035 12.144 22.1934 13.8281C23.7402 15.0799 24.75 16.9609 24.75 19.0909V21.8182H33V15C33 12.7405 31.1534 10.9091 28.875 10.9091H26.125ZM15.125 15C13.2605 15 11.7035 16.2349 11.1934 17.919C12.7402 19.1709 13.75 21.0518 13.75 23.1818V25.9091H22V19.0909C22 16.8314 20.1534 15 17.875 15H15.125ZM4.125 19.0909C1.84663 19.0909 0 20.9223 0 23.1818V30H11V23.1818C11 20.9223 9.15337 19.0909 6.875 19.0909H4.125Z" fill="currentColor"/>
</svg>
