<svg width="90" height="81" viewBox="0 0 90 81" fill="none" xmlns="http://www.w3.org/2000/svg">
<path d="M61.6758 0C57.5868 0 54.4418 1.02759 53.2148 3.05859C48.6278 3.51159 46.487 6.94748 45.668 11.0215C48.014 17.0845 47.959 24.8292 47.959 28.5762C47.959 29.2602 48.1467 32.2975 48.3867 33.1465C48.6267 35.2555 50.0499 37.6892 51.4629 39.4922C56.1819 35.4542 62.301 33 69 33C70.893 33 72.7404 33.1964 74.5254 33.5684C74.5524 33.4274 74.5983 33.2816 74.6133 33.1406C75.6753 33.0596 77.3439 32.0853 77.8359 28.2363C78.0999 26.1723 77.054 25.0105 76.418 24.6445C79.7 11.6215 78.0288 0.282 61.6758 0ZM23.6309 3C0.00285912 3 10.6637 38.6774 4.55273 43.6934C4.55273 43.6934 7.083 48.0176 18 48.0176V51.8789C15 59.9999 0 57 0 72H44.8418C43.1048 68.511 42.0924 64.6059 42.0234 60.4629C37.4814 57.5679 31.737 56.5769 30 51.8789V48.0527C40.863 48.0527 43.8809 43.582 43.8809 43.582C38.2049 38.86 48.9334 6 29.6074 6C29.6074 6 27.0029 3 23.6309 3ZM69 39C57.402 39 48 48.402 48 60C48 71.598 57.402 81 69 81C80.598 81 90 71.598 90 60C90 48.402 80.598 39 69 39ZM69 48C70.656 48 72 49.341 72 51V57H78C79.656 57 81 58.341 81 60C81 61.659 79.656 63 78 63H72V69C72 70.659 70.656 72 69 72C67.344 72 66 70.659 66 69V63H60C58.344 63 57 61.659 57 60C57 58.341 58.344 57 60 57H66V51C66 49.341 67.344 48 69 48Z" fill="white"/>
</svg>
