<svg width="30" height="30" viewBox="0 0 30 30" fill="none" xmlns="http://www.w3.org/2000/svg">
<path d="M27.2727 0H2.72727C1.22045 0 0 1.22045 0 2.72727V27.2727C0 28.7795 1.22045 30 2.72727 30H27.2727C28.7795 30 30 28.7795 30 27.2727V2.72727C30 1.22045 28.7795 0 27.2727 0ZM23.1818 16.3636H16.3636V23.1818C16.3636 23.9345 15.7541 24.5455 15 24.5455C14.2459 24.5455 13.6364 23.9345 13.6364 23.1818V16.3636H6.81818C6.06409 16.3636 5.45455 15.7527 5.45455 15C5.45455 14.2473 6.06409 13.6364 6.81818 13.6364H13.6364V6.81818C13.6364 6.06545 14.2459 5.45455 15 5.45455C15.7541 5.45455 16.3636 6.06545 16.3636 6.81818V13.6364H23.1818C23.9359 13.6364 24.5455 14.2473 24.5455 15C24.5455 15.7527 23.9359 16.3636 23.1818 16.3636Z" fill="#B0C5AF"/>
</svg>
