<svg width="100" height="88" viewBox="0 0 100 88" fill="none" xmlns="http://www.w3.org/2000/svg">
<path d="M50 0C37.5 0 29.1667 7.33333 29.1667 18.3333C29.1667 25.6667 37.5 36.6667 50 36.6667C58.3334 36.6667 66.6667 18.3333 66.6667 11C66.6667 7.33333 62.5 0 50 0ZM83.3333 25.6667C75 25.6667 58.3334 36.6658 58.3334 47.7025C58.3334 54.9991 70.8333 58.6667 79.1667 58.6667C83.3333 58.6667 100 55 100 40.3333C100 33 91.6667 25.6667 83.3333 25.6667ZM12.5 29.3333C4.16672 29.3333 5.08243e-05 36.6667 5.08243e-05 40.3333C5.08243e-05 44 4.16672 47.6667 16.6667 47.6667C18.4375 47.6997 33.3334 47.6667 33.3334 40.3333C33.3334 33 25 29.3333 12.5 29.3333ZM25 55C12.5 55 -0.0291158 62.2343 5.08243e-05 66C0.0333841 70.092 8.33338 80.6667 20.8334 80.6667C33.3334 80.6667 33.3334 66 33.3334 62.3333C33.3334 55 27.3459 55.1613 25 55ZM54.1667 58.6667C50 58.6667 41.6667 62.3333 41.6667 69.6667C41.6667 77 50 88 62.5 88C75 88 79.1667 81.884 79.1667 77C79.1667 69.6667 69.0583 58.6667 54.1667 58.6667Z" fill="#A5B9A4"/>
</svg>
