<svg width="81" height="72" viewBox="0 0 81 72" fill="none" xmlns="http://www.w3.org/2000/svg">
<path d="M6 0C2.691 0 0 2.691 0 6V66C0 69.309 2.691 72 6 72H48C51.309 72 54 69.309 54 66V39H30C28.344 39 27 37.656 27 36C27 34.344 28.344 33 30 33H54V6C54 2.691 51.309 0 48 0H6ZM54 33V39H70.7578L63.8789 45.8789C63.591 46.1553 63.3611 46.4864 63.2028 46.8528C63.0444 47.2192 62.9607 47.6135 62.9567 48.0126C62.9526 48.4118 63.0282 48.8077 63.1791 49.1772C63.33 49.5468 63.553 49.8825 63.8353 50.1647C64.1175 50.447 64.4532 50.67 64.8228 50.8209C65.1923 50.9718 65.5882 51.0474 65.9874 51.0433C66.3865 51.0393 66.7808 50.9556 67.1472 50.7972C67.5136 50.6389 67.8447 50.409 68.1211 50.1211L80.1211 38.1211C80.6835 37.5585 80.9994 36.7955 80.9994 36C80.9994 35.2045 80.6835 34.4415 80.1211 33.8789L68.1211 21.8789C67.8415 21.5915 67.5072 21.3631 67.1378 21.2071C66.7685 21.0511 66.3716 20.9707 65.9707 20.9707C65.3739 20.9709 64.7907 21.149 64.2957 21.4823C63.8007 21.8157 63.4163 22.2891 63.1917 22.842C62.9671 23.395 62.9126 24.0023 63.035 24.5864C63.1574 25.1705 63.4512 25.7049 63.8789 26.1211L70.7578 33H54Z" fill="white"/>
</svg>
