<svg width="80" height="80" viewBox="0 0 80 80" fill="none" xmlns="http://www.w3.org/2000/svg">
<path d="M79.6148 56.8666C80.8619 54.4152 78.8874 51.8947 76.4625 51.8947C75.9428 51.8947 75.4232 51.9983 74.869 52.24C70.331 54.4152 65.2041 55.6582 59.8347 55.6582C40.6088 55.6582 25.0203 40.1208 25.0203 21.0272C25.0203 15.2956 26.4059 9.90937 28.8654 5.17911C30.1472 2.69314 28.2765 0 25.8516 0C25.4013 0 24.8817 0.103583 24.3967 0.345275C9.36242 7.28528 -0.752821 22.719 0.0439275 40.1554C1.08316 62.5637 19.6855 80 41.9945 80C42.6526 80 43.3108 80 43.9344 79.9655C59.6961 79.2404 73.033 69.9871 79.6148 56.8666Z" fill="white"/>
</svg>
