<svg width="66" height="69" viewBox="0 0 66 69" fill="none" xmlns="http://www.w3.org/2000/svg">
<path d="M33.0014 0C23.0594 0 15.0014 8.058 15.0014 18V21C15.0014 30.942 23.0594 39 33.0014 39C42.9434 39 51.0014 30.942 51.0014 21V18C51.0014 8.058 42.9434 0 33.0014 0ZM21.2944 49.6582C12.4894 51.9592 4.18355 56.2914 1.12055 60.2754C-1.62145 63.8394 0.988789 69 5.48579 69H60.5112C65.0082 69 67.6184 63.8365 64.8764 60.2695C61.8134 56.2855 53.5104 51.9592 44.7084 49.6582C41.5584 52.3612 37.4744 54 33.0014 54C28.5254 54 24.4444 52.3582 21.2944 49.6582Z" fill="white"/>
</svg>
