<svg width="40" height="45" viewBox="0 0 40 45" fill="none" xmlns="http://www.w3.org/2000/svg">
<path d="M12.4148 0C9.12205 0 5.96545 1.2942 3.63636 3.6H0V27H1.10795C3.78614 27 6.24693 28.4552 7.5142 30.7898L11.8146 38.7176L12.7273 45H14.5455C20 45 20 40.0518 20 36C20 34.6788 18.1818 28.8 18.1818 28.8H35.4545C36.6601 28.8 37.8162 28.3259 38.6687 27.482C39.5211 26.6381 40 25.4935 40 24.3C39.9992 23.6008 39.8338 22.9114 39.5169 22.2865C39.2001 21.6616 38.7406 21.1184 38.1747 20.7C38.7406 20.2816 39.2001 19.7384 39.5169 19.1135C39.8338 18.4886 39.9992 17.7992 40 17.1C39.9989 16.1814 39.7138 15.2851 39.1831 14.5316C38.6524 13.7781 37.9015 13.2034 37.0312 12.8848C37.7706 12.0626 38.1799 11.0007 38.1818 9.9C38.1817 8.86285 37.8197 7.85758 37.1571 7.05425C36.4945 6.25091 35.5719 5.69884 34.5455 5.49141V3.6C34.5455 2.64522 34.1623 1.72955 33.4804 1.05442C32.7984 0.379284 31.8735 0 30.9091 0H12.4148Z" fill="#B0C5AF"/>
</svg>
