<svg width="40" height="45" viewBox="0 0 40 45" fill="none" xmlns="http://www.w3.org/2000/svg">
<path d="M12.7273 0L11.8146 6.28242L7.5142 14.2102C6.24693 16.5448 3.78614 18 1.10795 18H0V41.4H3.63636C5.96545 43.7058 9.12205 45 12.4148 45H30.9091C31.8735 45 32.7984 44.6207 33.4804 43.9456C34.1623 43.2705 34.5455 42.3548 34.5455 41.4V39.5016C35.5707 39.2944 36.4924 38.7433 37.1549 37.9414C37.8173 37.1396 38.1801 36.1359 38.1818 35.1C38.1799 33.9992 37.7706 32.9374 37.0312 32.1152C37.9015 31.7966 38.6524 31.2219 39.1831 30.4684C39.7138 29.7149 39.9989 28.8186 40 27.9C39.9992 27.2008 39.8338 26.5114 39.5169 25.8865C39.2001 25.2616 38.7406 24.7184 38.1747 24.3C38.7406 23.8816 39.2001 23.3384 39.5169 22.7135C39.8338 22.0886 39.9992 21.3992 40 20.7C40 19.5065 39.5211 18.3619 38.6687 17.518C37.8162 16.6741 36.6601 16.2 35.4545 16.2H18.1818C18.1818 16.2 20 10.3212 20 9C20 4.9482 20 0 14.5455 0H12.7273Z" fill="#B0C5AF"/>
</svg>
